<?xml version="1.0" encoding="utf-8"?><svg xmlns="http://www.w3.org/2000/svg" xmlns:xlink="http://www.w3.org/1999/xlink"><symbol viewBox="0 0 50.838 63.479" id="aira" xmlns="http://www.w3.org/2000/svg"><g data-name="Group 1276"><g data-name="Group 1272"><path d="M15.416 62.999c-.64-1.707-1.174-3.254-1.707-4.641-.533-1.44-1.067-2.774-1.6-4.107-.533-1.28-.96-2.507-1.547-3.681l-1.6-3.521-.107-.16H6.508l-.107.16L4.8 50.57q-.64 1.76-1.44 3.681c-.533 1.28-1.067 2.667-1.6 4.107S.693 61.289.053 62.999L0 63.266h2.774l1.44-4.054H11.1a12.672 12.672 0 0 1 .64 1.867c.267.693.427 1.334.693 1.974l.107.107h2.93zM10.4 57.078H5.121c.427-1.334.907-2.507 1.334-3.681.427-1.067.907-2.134 1.334-3.254.427.96.907 2.134 1.334 3.254a25.38 25.38 0 0 0 1.277 3.681z" fill="#fff" data-name="Path 2341"/></g><g data-name="Group 1273"><path d="M17.123 46.889h2.667v16.43h-2.667z" fill="#fff" data-name="Rectangle 383"/></g><g data-name="Group 1274"><path d="M34.138 62.999a20.465 20.465 0 0 0-.96-1.867c-.373-.64-.8-1.28-1.174-1.867-.427-.64-.8-1.174-1.174-1.707-.267-.373-.533-.693-.693-.96a5.412 5.412 0 0 0 2.347-1.6 4.53 4.53 0 0 0 .907-2.881 4.647 4.647 0 0 0-1.867-3.947 8.782 8.782 0 0 0-5.279-1.334 15.4 15.4 0 0 0-2.134.107 9.994 9.994 0 0 0-1.974.373v16.163h2.667v-6.4h2.507c.267.373.533.693.907 1.174a12.937 12.937 0 0 1 1.067 1.547c.373.587.693 1.067 1.067 1.707s.693 1.174.96 1.707l.107.107h2.934zm-4-9.6a1.675 1.675 0 0 1-.907.8 4.917 4.917 0 0 1-1.547.427 12.218 12.218 0 0 1-2.08.16h-.96v-5.6c.427 0 .96-.107 1.814-.107a11.545 11.545 0 0 1 1.547.16 5.984 5.984 0 0 1 1.28.427 1.675 1.675 0 0 1 .8.907 3.463 3.463 0 0 1 .267 1.44 2.719 2.719 0 0 1-.214 1.384z" fill="#fff" data-name="Path 2342"/></g><g data-name="Group 1275"><path d="M50.837 62.999c-.64-1.707-1.174-3.254-1.707-4.641-.533-1.44-1.067-2.774-1.6-4.107-.533-1.28-1.067-2.507-1.547-3.681l-1.6-3.521-.107-.16h-2.348l-.107.16-1.6 3.521c-.427 1.174-.96 2.4-1.547 3.681-.533 1.28-1.067 2.667-1.6 4.107s-1.067 2.934-1.707 4.641l-.107.267h2.774l1.44-4.054h6.886a12.672 12.672 0 0 1 .64 1.867c.267.693.427 1.334.693 1.974l.107.107h3.041zm-5.121-5.921h-5.282c.427-1.334.907-2.507 1.334-3.681.427-1.067.907-2.134 1.334-3.254.427.96.907 2.134 1.334 3.254.373 1.174.853 2.347 1.279 3.681z" fill="#fff" data-name="Path 2343"/></g></g><g data-name="Group 1288"><g data-name="Group 1277"><path d="M24.805 19.204h.587V34.46h-.587z" fill="#fff" data-name="Rectangle 384"/></g><g data-name="Group 1278"><path d="M40.648 3.361h.587v31.1h-.587z" fill="#fff" data-name="Rectangle 385"/></g><g data-name="Group 1279"><path d="M9.596 34.257L40.678 3.175l.415.415-31.082 31.082z" fill="#fff" data-name="Rectangle 386"/></g><g data-name="Group 1280"><path d="M9.762 34.247h31.1v.587h-31.1z" fill="#fff" data-name="Rectangle 387"/></g><g data-name="Group 1281"><path d="M24.955 34.309L40.71 18.984l.41.42L25.364 34.73z" fill="#fff" data-name="Rectangle 388"/></g><g data-name="Group 1282"><circle cx="3.361" cy="3.361" r="3.361" fill="#fff" data-name="Ellipse 667" transform="translate(37.501 31.1)"/></g><g data-name="Group 1283"><circle cx="3.361" cy="3.361" r="3.361" fill="#fff" data-name="Ellipse 668" transform="translate(37.501)"/></g><g data-name="Group 1284"><circle cx="3.361" cy="3.361" r="3.361" fill="#fff" data-name="Ellipse 669" transform="translate(37.501 15.63)"/></g><g data-name="Group 1285"><circle cx="3.361" cy="3.361" r="3.361" fill="#fff" data-name="Ellipse 670" transform="translate(6.401 31.1)"/></g><g data-name="Group 1286"><circle cx="3.361" cy="3.361" r="3.361" fill="#fff" data-name="Ellipse 671" transform="translate(22.031 31.1)"/></g><g data-name="Group 1287"><circle cx="3.361" cy="3.361" r="3.361" fill="#fff" data-name="Ellipse 672" transform="translate(22.031 15.843)"/></g></g></symbol><symbol viewBox="0 0 96.784 17.633" id="cyberFund" xmlns="http://www.w3.org/2000/svg"><path d="M7.314 6.596a5.336 5.336 0 0 0-2.155-.458c-1.567 0-2.416 1.11-2.416 2.939 0 1.959.914 3 2.547 3a5.473 5.473 0 0 0 2.155-.522l.455 2.163a6.426 6.426 0 0 1-2.808.588C1.894 14.302 0 12.342 0 9.142c0-3.134 1.829-5.224 4.9-5.224a7.568 7.568 0 0 1 2.939.588z" fill="#fff" data-name="Path 2170"/><path d="M9.339 15.347a5.1 5.1 0 0 0 3.135-1.894 16.041 16.041 0 0 1-3.462-9.142l2.678-.131a14.666 14.666 0 0 0 2.155 7.249 16.126 16.126 0 0 0 1.633-7.118l2.677-.131a21.231 21.231 0 0 1-2.808 9.012c-1.633 2.808-3.592 4.049-5.616 4.441z" fill="#fff" data-name="Path 2171"/><path d="M19.461 13.518V.131L22.139 0v4.114a3.972 3.972 0 0 1 1.437-.2c3 0 4.963 1.829 4.963 5.029 0 3.265-1.959 5.29-5.094 5.29a9.06 9.06 0 0 1-3.984-.715zm6.4-4.506c0-1.894-.784-2.939-2.482-2.939a3.819 3.819 0 0 0-1.241.261v5.42a3.416 3.416 0 0 0 1.176.2c1.763.062 2.547-1.048 2.547-2.942z" fill="#fff" data-name="Path 2172"/><path d="M38.531 9.731h-6.074a2.359 2.359 0 0 0 2.678 2.222 6.388 6.388 0 0 0 2.678-.588l.457 2.155a8.495 8.495 0 0 1-3.4.653 4.852 4.852 0 0 1-5.221-5.161c0-3.069 1.959-5.159 4.767-5.159a4.064 4.064 0 0 1 4.18 4.376 9.689 9.689 0 0 1-.065 1.502zm-2.482-1.829c0-1.11-.588-1.894-1.633-1.894-1.11 0-1.829.784-2.024 2.09h3.657z" fill="#fff" data-name="Path 2173"/><path d="M46.106 4.049l-.392 2.22a3.055 3.055 0 0 0-1.11-.131 3.807 3.807 0 0 0-1.633.327v7.445l-2.678.131V4.767a10.277 10.277 0 0 1 4.115-.849 11.226 11.226 0 0 1 1.698.131z" fill="#fff" data-name="Path 2174"/><path d="M58.253 0h8.229l-.329 2.351h-5.157V6.2h4.7l-.261 2.351h-4.374v5.486l-2.743.131V0z" fill="#fff" data-name="Path 2175"/><path d="M67.135 10.319V4.507l2.678-.131v5.943c0 1.241.522 1.959 1.763 1.959a4.625 4.625 0 0 0 1.7-.327V4.507l2.678-.131v9.273a12.512 12.512 0 0 1-4.376.849c-3.398-.065-4.443-1.763-4.443-4.179z" fill="#fff" data-name="Path 2176"/><path d="M77.714 4.963a11.867 11.867 0 0 1 4.376-.849c2.808 0 4.441 1.371 4.441 3.984v6.008l-2.678.131V8.294c0-1.306-.588-1.959-1.829-1.959a4.905 4.905 0 0 0-1.7.327v7.38l-2.678.131v-9.21z" fill="#fff" data-name="Path 2177"/><path d="M87.706 9.469a5.005 5.005 0 0 1 5.224-5.355 6.47 6.47 0 0 1 1.175.131V.392l2.679-.131v13.453a9.379 9.379 0 0 1-3.853.784c-3.266 0-5.225-1.959-5.225-5.029zm6.465 2.547V6.53a2.958 2.958 0 0 0-1.045-.2c-1.763 0-2.678 1.045-2.678 3 0 1.894.98 2.939 2.482 2.939a2.335 2.335 0 0 0 1.241-.253z" fill="#fff" data-name="Path 2178"/><circle cx="3.853" cy="3.853" r="3.853" fill="#fff" data-name="Ellipse 633" transform="translate(47.608 5.094)"/></symbol><symbol viewBox="0 0 84.657 51.652" id="daoCasino" xmlns="http://www.w3.org/2000/svg"><g data-name="Group 1269" transform="translate(24.724)" fill="#fff"><ellipse cx="1.013" cy="1.847" data-name="Ellipse 662" rx="1.013" ry="1.847" transform="translate(0 6.375)"/><ellipse cx="1.013" cy="1.847" data-name="Ellipse 663" rx="1.013" ry="1.847" transform="translate(0 18.826)"/><ellipse cx="1.132" cy="2.085" data-name="Ellipse 664" rx="1.132" ry="2.085" transform="translate(5.302 11.915)"/><path d="M33.183 3.575L18.049 0a1.31 1.31 0 0 0-1.251 1.311v26.273a1.124 1.124 0 0 1-.357.894 1.767 1.767 0 0 1-.894.417 2.291 2.291 0 0 0 1.251.3 25.323 25.323 0 0 0 2.979-.655l13.285-3.1a2.314 2.314 0 0 0 2.087-2.384V5.719c.06-1.31-.536-1.787-1.966-2.144zM22.221 25.439c-.715 0-1.311-1.132-1.311-2.443s.536-2.443 1.311-2.443c.715 0 1.311 1.132 1.311 2.443.06 1.37-.536 2.443-1.311 2.443zm0-17.1c-.715 0-1.311-1.132-1.311-2.443s.536-2.443 1.311-2.443c.715 0 1.311 1.132 1.311 2.443s-.536 2.443-1.311 2.443zM32.29 22.4c-.536 0-.894-.774-.894-1.847 0-1.013.417-1.847.894-1.847s.894.774.894 1.847-.418 1.847-.894 1.847zm0-12.332c-.536 0-.894-.774-.894-1.847 0-1.013.417-1.847.894-1.847s.894.774.894 1.847c0 1.013-.417 1.847-.894 1.847z" data-name="Path 2330"/><ellipse cx="1.311" cy="2.443" data-name="Ellipse 665" rx="1.311" ry="2.443" transform="translate(11.498 3.455)"/><ellipse cx="1.311" cy="2.443" data-name="Ellipse 666" rx="1.311" ry="2.443" transform="translate(11.498 20.554)"/></g><g data-name="Group 1270" fill="#fff"><path d="M0 51.414V39.975h3.158a5.776 5.776 0 0 1 4.17 1.489 6.21 6.21 0 0 1 0 8.341 5.776 5.776 0 0 1-4.17 1.489H0zm3.038-1.251a4.574 4.574 0 0 0 3.277-1.132 4.3 4.3 0 0 0 1.192-3.4 4.612 4.612 0 0 0-1.192-3.4 4.479 4.479 0 0 0-3.277-1.132H1.37v9h1.668z" data-name="Path 2331"/><path d="M9.353 51.414l4.528-11.379h1.43l4.528 11.379h-1.37l-1.311-3.4h-5.065l-1.311 3.4zm4.945-8.936l-1.787 4.409h4.17l-1.728-4.409c-.179-.417-.238-.715-.357-.953z" data-name="Path 2332"/><path d="M29.728 41.405a5.762 5.762 0 0 1 1.549 4.289 6.212 6.212 0 0 1-1.549 4.289 5.4 5.4 0 0 1-3.932 1.668 5.182 5.182 0 0 1-3.932-1.668 5.762 5.762 0 0 1-1.549-4.288 6.212 6.212 0 0 1 1.549-4.289 5.468 5.468 0 0 1 7.864 0zm-6.851 7.685a3.906 3.906 0 0 0 5.838 0 5.018 5.018 0 0 0 1.192-3.4 4.911 4.911 0 0 0-1.192-3.4 3.906 3.906 0 0 0-5.838 0 5.018 5.018 0 0 0-1.192 3.4 4.911 4.911 0 0 0 1.192 3.4z" data-name="Path 2333"/><path d="M31.992 51.414v-1.609h1.549v1.609z" data-name="Path 2334"/><path d="M44.503 47.959l1.013.774a5.043 5.043 0 0 1-4.826 2.919 5.182 5.182 0 0 1-3.932-1.668 6.166 6.166 0 0 1-1.549-4.23 5.944 5.944 0 0 1 1.609-4.23 5.546 5.546 0 0 1 6.851-.953 4.964 4.964 0 0 1 1.847 2.145l-1.072.774a3.9 3.9 0 0 0-3.753-2.5 3.787 3.787 0 0 0-2.919 1.37 5.457 5.457 0 0 0-.06 6.732 3.733 3.733 0 0 0 2.979 1.37 3.821 3.821 0 0 0 2.2-.6 5.8 5.8 0 0 0 1.612-1.903z" data-name="Path 2335"/><path d="M54.155 51.414h-1.251a2.584 2.584 0 0 1-.477-1.609 2.811 2.811 0 0 1-2.74 1.847 2.657 2.657 0 0 1-1.966-.715 2.477 2.477 0 0 1-.774-1.787 2.266 2.266 0 0 1 .774-1.787 4.174 4.174 0 0 1 2.025-.83l2.681-.417v-.357c0-1.013-.655-1.549-1.906-1.549a2.541 2.541 0 0 0-1.43.357.988.988 0 0 0-.477.894.358.358 0 0 0 .06.238l-1.132.357a2.142 2.142 0 0 1-.119-.655 1.978 1.978 0 0 1 .834-1.609 3.413 3.413 0 0 1 2.264-.655 3.558 3.558 0 0 1 2.383.715 2.516 2.516 0 0 1 .834 1.966v3.634a5.483 5.483 0 0 0 .119 1.132 2.348 2.348 0 0 0 .298.83zm-4.349-.953a2.266 2.266 0 0 0 1.906-.894 3.494 3.494 0 0 0 .715-2.2v-.3l-2.443.417a3.048 3.048 0 0 0-1.251.536 1.307 1.307 0 0 0-.417 1.013 1.227 1.227 0 0 0 .417 1.013 1.275 1.275 0 0 0 1.073.415z" data-name="Path 2336"/><path d="M57.074 45.218a.924.924 0 0 0 .536.894 4.207 4.207 0 0 0 1.609.536c1.787.357 2.74 1.132 2.74 2.383a2.539 2.539 0 0 1-.834 1.847 3.349 3.349 0 0 1-2.264.774 3.662 3.662 0 0 1-2.145-.655 3.459 3.459 0 0 1-1.251-1.664l1.072-.655a2.491 2.491 0 0 0 2.383 1.906 2.14 2.14 0 0 0 1.311-.357 1.309 1.309 0 0 0 .477-1.072.98.98 0 0 0-.477-.894 3.874 3.874 0 0 0-1.549-.536 4.915 4.915 0 0 1-1.966-.834 1.891 1.891 0 0 1-.774-1.549 1.978 1.978 0 0 1 .834-1.609 3.526 3.526 0 0 1 5.124 1.37l-.953.6a2.182 2.182 0 0 0-2.145-1.43 2.346 2.346 0 0 0-1.192.3c-.298.169-.536.288-.536.645z" data-name="Path 2337"/><path d="M63.806 41.942v-1.609h1.549v1.609zm.119 9.473v-8.1h1.251v8.043h-1.251z" data-name="Path 2338"/><path d="M74.47 45.873v5.481h-1.251v-5.242a1.932 1.932 0 0 0-.536-1.43 1.9 1.9 0 0 0-1.43-.477 2.254 2.254 0 0 0-1.668.715 2.657 2.657 0 0 0-.715 1.966v4.468h-1.251v-8.042h1.251v1.43a3.119 3.119 0 0 1 1.132-1.192 2.886 2.886 0 0 1 1.549-.417 3.006 3.006 0 0 1 2.026.715 2.345 2.345 0 0 1 .893 2.025z" data-name="Path 2339"/><path d="M83.997 45.039a4.323 4.323 0 0 1-1.6 6.134 3.988 3.988 0 0 1-1.966.477 4.551 4.551 0 0 1-1.966-.477 4.719 4.719 0 0 1-1.609-1.489 4.323 4.323 0 0 1 1.609-6.136 4.763 4.763 0 0 1 1.966-.477 4.551 4.551 0 0 1 1.966.477 4.281 4.281 0 0 1 1.6 1.491zm-5.66 4.528a2.7 2.7 0 0 0 2.085.894 2.8 2.8 0 0 0 2.085-.894 3.207 3.207 0 0 0 .834-2.264 3.312 3.312 0 0 0-.834-2.264 2.7 2.7 0 0 0-2.085-.894 2.8 2.8 0 0 0-2.085.894 3.49 3.49 0 0 0 0 4.528z" data-name="Path 2340"/></g></symbol><symbol viewBox="0 0 69.352 56.708" id="golos" xmlns="http://www.w3.org/2000/svg"><g fill="#fff"><path d="M39.852 1.49a9.176 9.176 0 0 1 2.054 2.3 11.418 11.418 0 0 1 1.479 5.423 23.33 23.33 0 0 1-.9 7.888 20.663 20.663 0 0 1-2.876 6.081 14.918 14.918 0 0 1 2.465-.9 13.328 13.328 0 0 1 4.026-.657 5.64 5.64 0 0 1 3.04.822 3.887 3.887 0 0 1 1.643 1.808 7.134 7.134 0 0 1 .575 3.451 11.278 11.278 0 0 1-.986 3.615 9.485 9.485 0 0 0-.822-2.712 3.365 3.365 0 0 0-1.643-1.561 4.086 4.086 0 0 0-2.794.079 15.474 15.474 0 0 0-3.122 1.479c-1.726.986-3.451 2.136-5.095 3.287-1.643.822-3.2 1.808-4.848 2.712a19.97 19.97 0 0 1-3.04 1.315 14.473 14.473 0 0 1-6.245.411 6.328 6.328 0 0 1-2.958-1.233 5.778 5.778 0 0 1-1.89-3.369 6.62 6.62 0 0 0 2.712 1.15 7.529 7.529 0 0 0 2.712.082 5.4 5.4 0 0 0 2.383-1.4 12.421 12.421 0 0 0 3.451-8.135v-.247a12.763 12.763 0 0 1-2.958-.657 18.541 18.541 0 0 1-2.712-1.068 14.965 14.965 0 0 1-2.219-1.233 9.379 9.379 0 0 1-3.369-4.6 10.1 10.1 0 0 0 2.054 1.15 11.671 11.671 0 0 0 3.369.657c1.15.082 2.383.082 3.533.082a15.1 15.1 0 0 0 5.423-.986 11.652 11.652 0 0 0 5.012-3.862 13.1 13.1 0 0 0 2.465-6.409 11.646 11.646 0 0 0 .081-4.763" data-name="Path 2295"/><path d="M37.387 6.749a6.632 6.632 0 0 0-2.054-4.52A7.137 7.137 0 0 0 31.225.093a6.458 6.458 0 0 0-4.273.74 7.187 7.187 0 0 0-3.78 8.053 7.752 7.752 0 0 0 2.3 3.944c-1.233.822-2.547 1.643-3.78 2.547a13.928 13.928 0 0 0 1.89.082 26.631 26.631 0 0 0 6.245-.411 10.632 10.632 0 0 0 3.122-.986 6.957 6.957 0 0 0 3.369-2.958 7.48 7.48 0 0 0 1.069-4.355zm-3.533-2.63a5.033 5.033 0 0 0-3.533-1.726 4.579 4.579 0 0 0-3.04.9c-.164-.247-.247-.411-.411-.657a5.524 5.524 0 0 1 3.533-.986 6.106 6.106 0 0 1 4.109 1.972 2.269 2.269 0 0 0-.658.497z" data-name="Path 2296"/><g data-name="Group 1241"><path d="M5.423 56.704C1.89 56.704 0 54.404 0 50.956s2.054-5.752 5.423-5.752a6.035 6.035 0 0 1 3.369.9l-.329 1.972a5.216 5.216 0 0 0-3.04-1.068c-2.136 0-3.287 1.561-3.287 3.944s1.151 3.952 3.369 3.952a4.565 4.565 0 0 0 1.89-.411v-2.469H5.177l-.247-1.725h4.437v5.259a6.967 6.967 0 0 1-3.944 1.146z" data-name="Path 2297"/><path d="M16.27 56.704c-3.122 0-5.177-2.3-5.177-5.752s2.054-5.748 5.259-5.748 5.177 2.3 5.177 5.752-2.055 5.748-5.259 5.748zm0-9.7c-1.89 0-3.04 1.561-3.04 4.026s1.15 4.026 3.04 4.026 3.04-1.561 3.04-4.026-1.15-4.018-3.04-4.018z" data-name="Path 2298"/><path d="M23.418 56.543V45.45h2.136v9.2h3.7l.329 1.89z" data-name="Path 2299"/><path d="M35.169 56.704c-3.122 0-5.177-2.3-5.177-5.752s2.054-5.748 5.259-5.748 5.177 2.3 5.177 5.752-2.055 5.748-5.259 5.748zm0-9.7c-1.89 0-3.04 1.561-3.04 4.026s1.15 4.026 3.04 4.026 3.04-1.561 3.04-4.026-1.15-4.018-3.04-4.018z" data-name="Path 2300"/><path d="M45.276 56.625a8.566 8.566 0 0 1-3.451-.74l.329-1.972a6.138 6.138 0 0 0 3.2.986c.986 0 1.643-.493 1.643-1.315s-.411-1.15-1.972-1.808c-2.136-.9-3.04-1.561-3.04-3.287 0-1.972 1.479-3.122 3.615-3.122a6.3 6.3 0 0 1 2.958.657l-.329 1.89a5.318 5.318 0 0 0-2.629-.9c-1.068 0-1.561.493-1.561 1.15 0 .74.329 1.068 1.89 1.726 2.3.9 3.122 1.726 3.122 3.451.005 2.216-1.638 3.284-3.775 3.284z" data-name="Path 2301"/><path d="M50.535 56.544v-2.383h2.136v2.383z" data-name="Path 2302"/><path d="M54.807 56.543V45.45h2.136v11.093z" data-name="Path 2303"/><path d="M64.093 56.704c-3.122 0-5.177-2.3-5.177-5.752s2.054-5.748 5.259-5.748 5.177 2.3 5.177 5.752-2.055 5.748-5.259 5.748zm.082-9.7c-1.89 0-3.04 1.561-3.04 4.026s1.15 4.026 3.04 4.026 3.041-1.552 3.041-4.018-1.151-4.026-3.041-4.026z" data-name="Path 2304"/></g></g></symbol><symbol viewBox="0 0 78.585 25.184" id="p2p.org" xmlns="http://www.w3.org/2000/svg"><g data-name="Group 1142" fill="#fff"><path d="M51.046 0v9.44H29.065v5.332h22.112v2.054H26.965V7.43h21.983V2.1H26.965V0z" data-name="Path 2207"/><path d="M78.143 9.44H56.378v7.3h-2.185V0h23.993c-.043 3.147-.043 6.25-.043 9.44zM56.422 2.1v5.242h19.671V2.1z" data-name="Path 2208"/><path d="M24.037.087V9.44H2.229v7.3H.044C0 11.187 0 5.637 0 .087zM2.229 2.141v5.288h19.71V2.141z" data-name="Path 2209"/><path d="M66.601 25.125h-1.355c-.743-.044-1.049-.306-1.049-1.049v-1.18c0-.568.262-.918.83-.918q1.573-.066 3.147 0c.568 0 .83.35.83.918v1.267c0 .656-.306.961-1.005 1.005h-.087a12.711 12.711 0 0 0-1.311-.043zm0-2.753h-1.22a.419.419 0 0 0-.481.481v1.355a.426.426 0 0 0 .437.481h2.535c.306 0 .437-.175.437-.524v-1.264c0-.393-.175-.524-.524-.524z" data-name="Path 2210"/><path d="M76.919 23.775c.568.481 1.049.874 1.573 1.311a1.435 1.435 0 0 1-1.442-.35 9.216 9.216 0 0 0-1.005-.83.785.785 0 0 0-.393-.175c-.656-.044-.787.044-.787.7v.612h-.656a9.857 9.857 0 0 1 0-1.136.75.75 0 0 1 .83-.656c.787-.044 1.53 0 2.316-.044a.63.63 0 0 0 .481-.306c.175-.306-.087-.568-.481-.612h-2.8a1.086 1.086 0 0 1-.35-.044v-.393c.131 0 .262-.044.35-.044h3.059a.843.843 0 0 1 .962.83.79.79 0 0 1-.787.961 1.437 1.437 0 0 1-.87.176z" data-name="Path 2211"/><path d="M35.182 25.129v-.39a1.893 1.893 0 0 0 .219-.044h3.1c.743 0 .787-.044.787-.787V22.9c0-.393-.175-.524-.524-.524h-3.54v-.437h3.8c.743 0 1.049.35 1.049 1.093v1.136c0 .612-.262.961-.874.961-1.395.044-2.662 0-4.017 0z" data-name="Path 2212"/><path d="M14.684 25.125c-.393 0-.787.131-1.005-.306a.311.311 0 0 0-.262-.131h-2.4a.54.54 0 0 0-.35.175c-.175.306-.393.306-.7.262a.955.955 0 0 1 .131-.219c.612-.874 1.224-1.792 1.836-2.666.262-.393.393-.393.7 0 .612.83 1.224 1.7 1.836 2.535a2.439 2.439 0 0 1 .214.35zm-1.442-.918a33.136 33.136 0 0 1-1.093-1.53c-.35.524-.7 1.005-1.049 1.53z" data-name="Path 2213"/><path d="M45.233 25.129c.7-1.005 1.4-2.01 2.1-2.972.131-.219.35-.306.524-.044.7.961 1.4 1.967 2.1 2.928v.087c-.35 0-.743.131-.961-.306-.044-.087-.219-.131-.306-.131h-2.36a.459.459 0 0 0-.393.219c-.18.263-.398.263-.704.219zm3.278-.918a33.136 33.136 0 0 1-1.093-1.53c-.393.524-.7 1.005-1.049 1.53z" data-name="Path 2214"/><path d="M0 21.983a.88.88 0 0 1 1.093.393c.437.656.961 1.311 1.486 2.01.306-.437.568-.787.83-1.18a7.187 7.187 0 0 0 .612-.961.513.513 0 0 1 .7-.262l-.131.262c-.612.874-1.18 1.7-1.792 2.579-.306.481-.437.481-.743 0C1.355 23.862.7 22.949 0 21.983z" data-name="Path 2215"/><path d="M19.885 21.939h.7v2.054c0 .568.087.7.7.7h2.97a1.487 1.487 0 0 0 .044.437h-3.321c-.743 0-1.049-.35-1.049-1.049-.044-.7-.044-1.399-.044-2.142z" data-name="Path 2216"/><path d="M59.044 21.939v.437h-1.573v2.753h-.7v-2.71h-1.617a1.348 1.348 0 0 0-.044-.437c1.356-.043 2.623-.043 3.934-.043z" data-name="Path 2217"/><path d="M30.069 21.939v3.19h-.656v-3.19z" data-name="Path 2218"/></g></symbol><symbol viewBox="0 0 97.366 16.529" id="pandora" xmlns="http://www.w3.org/2000/svg"><g data-name="Group 1138"><path d="M64.412 16.369h.8v-1.44h2.08v1.44h.8v-3.732h-3.733zm2.879-2.879v.64h-2.079v-.64zm24.261-.853v3.733h-.96l-1.92-2.559v2.559h-.8v-3.733h.96l1.92 2.559v-2.559zm-74.009 3.732h3.733v-3.732h-3.733zm.8-2.879h2.08v2.08h-2.08zM5.812 16.369h3.733v-3.732H5.812zm.8-2.879h2.08v.64h-2.08zm0 1.44h2.08v.64h-2.08zm25.275-.587v.373l1.28 1.28-.64.533-1.44-1.44-1.44 1.44-.587-.533 1.28-1.28v-.373l-1.28-1.28.587-.587 1.44 1.44 1.44-1.44.587.587zm9.065-1.706h3.733v.8h-2.881v2.08h2.879v.8h-3.732zm14.61 0h.8v3.733h-.8v-1.44h-2.08v1.44h-.8v-3.733h.8v1.44h2.08zm20.529 0h3.733v.8h-1.44v2.08h1.44v.8H76.09v-.8h1.44v-2.08h-1.44z" fill="#fff" data-name="Path 2205"/></g><g data-name="Group 1139"><path d="M0 8.9h1.653V6.025h5.812V1.493H0zm1.653-5.807h4.159v1.28H1.653zM14.5 8.9h1.653V6.025h4.159V8.9h1.653V1.493H14.5zm5.812-5.812v1.28h-4.155V3.093zM89.9 1.44v7.411h1.653V5.972h4.159v2.879h1.653V1.44H89.9zm1.653 2.933v-1.28h4.159v1.28h-4.158zM34.819 1.44h1.653v7.411H34.5l-3.84-5.118v5.118h-1.653V1.44h1.973l3.839 5.119zM60.894 8.9h7.412V1.44h-7.412V8.9zm1.653-5.812h4.159v4.164h-4.159zm20.315 2.884V1.44H75.45v7.411h1.65V5.972h1.76l3.253 3.253 1.173-1.173-2.08-2.08zm-5.812-1.6V3.093h4.159v1.28zM42.977 0a750.162 750.162 0 0 1 5.652 11.358L54.335 0zm5.705 7.678a636.41 636.41 0 0 0-3.039-6.025h6.079z" fill="#fff" data-name="Path 2206"/></g></symbol><symbol viewBox="0 0 102.126 12.19" id="satochiFund" xmlns="http://www.w3.org/2000/svg"><path d="M58.364 7.323a2.068 2.068 0 0 1 4.135 0 2.068 2.068 0 0 1-4.135 0z" fill="#fff" data-name="Path 2179"/><g data-name="Group 1114" fill="#fff"><path d="M1.249 8.486a4.966 4.966 0 0 0 3.618 1.551c1.335 0 2.024-.646 2.024-1.292 0-.861-.991-1.163-2.326-1.464C2.671 6.845.258 6.332.258 3.791.258 1.853 1.9.345 4.609.345a6.272 6.272 0 0 1 4.48 1.594L7.753 3.745A4.882 4.882 0 0 0 4.48 2.499c-1.12 0-1.68.474-1.68 1.163 0 .775.948 1.034 2.283 1.335 1.9.431 4.307.991 4.307 3.532 0 2.111-1.464 3.661-4.566 3.661A6.73 6.73 0 0 1 0 10.295z" data-name="Path 2180"/><path d="M15.937 11.07a3.371 3.371 0 0 1-2.627 1.077 2.722 2.722 0 0 1-2.843-2.715 2.6 2.6 0 0 1 2.843-2.627 3.284 3.284 0 0 1 2.627 1.034V6.676c0-.861-.732-1.378-1.852-1.378a3.354 3.354 0 0 0-2.412.991l-.818-1.464a5.417 5.417 0 0 1 3.618-1.293c1.9 0 3.618.775 3.618 3.144v5.384h-2.2a8.314 8.314 0 0 0 .046-.99zm0-2.111a2.148 2.148 0 0 0-1.723-.732c-.861 0-1.551.431-1.551 1.249 0 .775.732 1.206 1.551 1.206a1.974 1.974 0 0 0 1.723-.732z" data-name="Path 2181"/><path d="M20.718 9.863v-4.35H19.34V3.575h1.378v-2.24h2.2v2.283h1.68v1.938h-1.68v3.747c0 .517.258.9.775.9a1.667 1.667 0 0 0 .775-.215l.431 1.637a2.632 2.632 0 0 1-1.852.517 2.043 2.043 0 0 1-2.329-2.279z" data-name="Path 2182"/><path d="M25.542 7.796a4.194 4.194 0 0 1 4.393-4.35 4.242 4.242 0 0 1 4.393 4.35 4.394 4.394 0 0 1-8.787 0zm6.547 0a2.148 2.148 0 1 0-4.264 0 2.148 2.148 0 1 0 4.264 0z" data-name="Path 2183"/><path d="M36.139 9.346a4.7 4.7 0 0 0 2.843 1.12c.948 0 1.378-.3 1.378-.861s-.732-.818-1.637-.991c-1.421-.258-3.274-.646-3.274-2.584-.001-1.378 1.207-2.584 3.399-2.584a5.512 5.512 0 0 1 3.36 1.12l-.9 1.464a3.475 3.475 0 0 0-2.46-.947c-.818 0-1.292.3-1.292.775 0 .517.689.732 1.551.9 1.421.258 3.317.689 3.317 2.714 0 1.508-1.292 2.627-3.575 2.627a5.609 5.609 0 0 1-3.7-1.292z" data-name="Path 2184"/><path d="M49.75 6.892c0-1.163-.56-1.508-1.551-1.508a2.369 2.369 0 0 0-1.892.99v5.6h-2.2V.474h2.2v4.264a3.737 3.737 0 0 1 2.886-1.292 2.346 2.346 0 0 1 2.671 2.584v5.9h-2.2V6.892z" data-name="Path 2185"/><path d="M53.841 1.292a1.292 1.292 0 0 1 2.584 0 1.269 1.269 0 0 1-1.292 1.292 1.3 1.3 0 0 1-1.292-1.292zm.215 2.369h2.2v8.27h-2.2z" data-name="Path 2186"/><path d="M64.567.474h8.1v2.111h-5.686v2.5h5.6v2.108h-5.556v4.781h-2.412l-.046-11.5z" data-name="Path 2187"/><path d="M79.943 10.897a3.789 3.789 0 0 1-2.886 1.249 2.346 2.346 0 0 1-2.671-2.584v-5.9h2.2v5c0 1.163.56 1.508 1.508 1.508a2.337 2.337 0 0 0 1.893-.952v-5.6h2.2v8.27h-2.24v-.991z" data-name="Path 2188"/><path d="M89.851 6.935c0-1.163-.56-1.551-1.508-1.551a2.369 2.369 0 0 0-1.9.991v5.6h-2.2V3.704h2.2v1.077a3.737 3.737 0 0 1 2.891-1.292 2.376 2.376 0 0 1 2.671 2.627v5.858h-2.2l.043-5.04z" data-name="Path 2189"/><path d="M99.927 10.898a3.242 3.242 0 0 1-2.541 1.249c-2.111 0-3.661-1.551-3.661-4.35 0-2.714 1.551-4.35 3.661-4.35a3.122 3.122 0 0 1 2.541 1.248V.474h2.2v11.457h-2.2zm0-4.566a2.47 2.47 0 0 0-1.9-.948 2.173 2.173 0 0 0-2.1 2.412 2.173 2.173 0 0 0 2.111 2.412 2.407 2.407 0 0 0 1.9-.948z" data-name="Path 2190"/></g></symbol></svg>