<?xml version="1.0" encoding="utf-8"?><svg xmlns="http://www.w3.org/2000/svg" xmlns:xlink="http://www.w3.org/1999/xlink"><symbol viewBox="0 0 180.564 77.351" id="logo_cyber_fund" xmlns="http://www.w3.org/2000/svg"><g data-name="Group 472" opacity=".982" transform="translate(35 22.247)"><path d="M8.4 7.556a6.53 6.53 0 0 0-2.519-.551c-1.784 0-2.781 1.259-2.781 3.358 0 2.282 1.023 3.463 2.938 3.463a6.451 6.451 0 0 0 2.462-.577l.5 2.466a7.661 7.661 0 0 1-3.2.656c-3.675-.027-5.8-2.309-5.8-5.93 0-3.594 2.1-5.955 5.641-5.955A8.884 8.884 0 0 1 9 5.142z" fill="#fff" data-name="Path 1341"/><path d="M10.678 17.604a5.38 5.38 0 0 0 3.568-2.2 18.686 18.686 0 0 1-3.988-10.498l3.07-.184a16.277 16.277 0 0 0 2.519 8.343 18.988 18.988 0 0 0 1.889-8.159l3.042-.184a24.717 24.717 0 0 1-3.227 10.363c-1.863 3.279-4.04 4.722-6.375 5.116z" fill="#fff" data-name="Path 1342"/><path d="M22.326 15.531V.183l3.07-.157v4.722a4.523 4.523 0 0 1 1.653-.262c3.411 0 5.719 2.1 5.719 5.772 0 3.778-2.256 6.087-5.877 6.087a10.771 10.771 0 0 1-4.565-.814zm7.346-5.168c0-2.178-.918-3.358-2.886-3.358a3.4 3.4 0 0 0-1.39.341v6.244a3.639 3.639 0 0 0 1.364.21c1.994 0 2.912-1.286 2.912-3.437z" fill="#fff" data-name="Path 1343"/><path d="M44.207 11.202h-7a2.755 2.755 0 0 0 3.1 2.571 7.581 7.581 0 0 0 3.07-.656l.5 2.466a9.825 9.825 0 0 1-3.883.761c-3.568 0-6.008-2.256-6.008-5.955 0-3.516 2.23-5.929 5.509-5.929 2.912 0 4.8 2.073 4.8 5.037a10.759 10.759 0 0 1-.088 1.705zm-2.832-2.125a1.9 1.9 0 0 0-1.889-2.151c-1.286 0-2.125.918-2.335 2.414h4.224z" fill="#fff" data-name="Path 1344"/><path d="M52.943 4.67l-.446 2.519a4.066 4.066 0 0 0-1.312-.184 4.281 4.281 0 0 0-1.836.367v8.526l-3.07.184V5.457a11.377 11.377 0 0 1 4.644-.971 9.81 9.81 0 0 1 2.02.184z" fill="#fff" data-name="Path 1345"/><path d="M66.847 0h9.445l-.341 2.7h-5.93v4.41h5.378l-.341 2.7h-5.063v6.27l-3.174.184V0z" fill="#fff" data-name="Path 1346"/><path d="M77.001 11.805V5.142l3.043-.184v6.847c0 1.39.63 2.23 2.02 2.23a4.583 4.583 0 0 0 1.941-.394v-8.5l3.069-.184v10.626a15.151 15.151 0 0 1-5.063.971c-3.751.004-5.01-1.915-5.01-4.749z" fill="#fff" data-name="Path 1347"/><path d="M89.173 5.667a13.425 13.425 0 0 1 5.011-.971c3.227 0 5.09 1.6 5.09 4.539v6.874l-3.069.184V9.471c0-1.522-.708-2.23-2.073-2.23a4.668 4.668 0 0 0-1.941.394v8.5l-3.043.184V5.667z" fill="#fff" data-name="Path 1348"/><path d="M100.638 10.888a5.709 5.709 0 0 1 6.034-6.113 7.478 7.478 0 0 1 1.366.157V.472l3.043-.157v15.4a11.308 11.308 0 0 1-4.408.918c-3.779 0-6.035-2.203-6.035-5.745zm7.4 2.938v-6.3a3.894 3.894 0 0 0-1.207-.21c-1.994 0-3.07 1.181-3.07 3.463 0 2.2 1.1 3.358 2.886 3.358a3.2 3.2 0 0 0 1.391-.311z" fill="#fff" data-name="Path 1349"/><circle cx="4.408" cy="4.408" r="4.408" fill="#ef3b24" data-name="Ellipse 490" transform="translate(54.648 5.877)"/></g><path fill="none" stroke="#ef3b24" d="M180.064.5H.5v61.6h136.913l12.125 14.471L161.663 62.1h18.4z" data-name="Path 1429"/></symbol><symbol viewBox="0 0 180.564 77.351" id="logo_golos" xmlns="http://www.w3.org/2000/svg"><g data-name="Group 470" opacity=".982"><path d="M63.078 15.757a9.951 9.951 0 0 1 2.072 2.325 11.863 11.863 0 0 1 1.473 5.456 22.876 22.876 0 0 1-.921 7.9 21.544 21.544 0 0 1-2.854 6.119 20.065 20.065 0 0 1 2.463-.944 13.174 13.174 0 0 1 4.029-.645 6.273 6.273 0 0 1 3.085.783 4.143 4.143 0 0 1 1.681 1.819 6.739 6.739 0 0 1 .553 3.5 10.106 10.106 0 0 1-1.013 3.637 7.75 7.75 0 0 0-.852-2.74 3.325 3.325 0 0 0-1.658-1.565 4.435 4.435 0 0 0-2.786.046 15.009 15.009 0 0 0-3.154 1.45c-1.75 1.036-3.43 2.187-5.157 3.269-1.589 1.013-3.2 2-4.881 2.9a17.713 17.713 0 0 1-3.038 1.29 15.411 15.411 0 0 1-6.239.414 5.571 5.571 0 0 1-2.947-1.264 5.875 5.875 0 0 1-1.888-3.384 6.393 6.393 0 0 0 2.694 1.151 6.016 6.016 0 0 0 2.717.046 5.292 5.292 0 0 0 2.417-1.427 11.174 11.174 0 0 0 2.694-4.374 11.824 11.824 0 0 0 .737-3.776.54.54 0 0 0-.046-.276 14.76 14.76 0 0 1-2.993-.645 22.546 22.546 0 0 1-2.694-1.059 14.054 14.054 0 0 1-2.21-1.266A8.527 8.527 0 0 1 41 29.869a8.08 8.08 0 0 0 2.095 1.151 12.127 12.127 0 0 0 3.384.691c1.2.092 2.394.092 3.591.092a14.806 14.806 0 0 0 5.479-.99 11.364 11.364 0 0 0 5.065-3.868 13.769 13.769 0 0 0 2.486-6.422 16.524 16.524 0 0 0-.022-4.766" fill="#fff" data-name="Path 1421"/><path fill="#ef3b24" d="M60.546 21.029a7.241 7.241 0 0 0-6.124-6.7 6.992 6.992 0 0 0-4.305.714 7.223 7.223 0 0 0-3.2 3.223 7.36 7.36 0 0 0 1.682 8.818c-1.266.852-2.532 1.681-3.8 2.532.622.046 1.243.069 1.865.092a32.269 32.269 0 0 0 6.308-.391 11.692 11.692 0 0 0 3.154-.99 7.373 7.373 0 0 0 3.407-2.97 7.678 7.678 0 0 0 1.013-4.328zm-3.568-2.647a5.124 5.124 0 0 0-3.591-1.75 5.031 5.031 0 0 0-3.062.9c-.138-.207-.276-.414-.437-.622a5.75 5.75 0 0 1 3.545-1.013 5.941 5.941 0 0 1 4.121 2c-.185.162-.369.324-.576.485z" data-name="Path 1422"/><g data-name="Group 462" fill="#fff"><path d="M89.253 28.419H84.12v11.074h-2.74V26.071h7.873z" data-name="Path 1423"/><path d="M89.875 32.771c0-4.075 2.21-6.93 6.078-6.93 3.822 0 6.055 2.855 6.055 6.93s-2.233 6.93-6.055 6.93c-3.868.022-6.078-2.833-6.078-6.93zm9.278 0c0-2.74-1.082-4.512-3.223-4.512-2.187 0-3.246 1.773-3.246 4.512s1.082 4.512 3.246 4.512c2.164.023 3.223-1.773 3.223-4.512z" data-name="Path 1424"/><path d="M114.416 39.493h-2.74V28.419h-3.545v.23c0 7.943-1.013 11.073-4.144 11.073a5.72 5.72 0 0 1-1.519-.183l.345-2.118a3.514 3.514 0 0 0 .691.069c1.45 0 2-2.74 2-8.979v-2.44h8.886v13.422z" data-name="Path 1425"/><path d="M116.626 32.771c0-4.075 2.21-6.93 6.078-6.93 3.822 0 6.055 2.855 6.055 6.93s-2.233 6.93-6.055 6.93c-3.868.022-6.078-2.833-6.078-6.93zm9.278 0c0-2.74-1.082-4.512-3.223-4.512-2.187 0-3.246 1.773-3.246 4.512s1.082 4.512 3.246 4.512c2.164.023 3.223-1.773 3.223-4.512z" data-name="Path 1426"/><path d="M136.816 25.841a8.633 8.633 0 0 1 3.246.691l-.622 2.325a7.573 7.573 0 0 0-2.6-.6c-2.555 0-3.591 1.8-3.591 4.6s1.082 4.443 3.591 4.443a5.861 5.861 0 0 0 2.809-.737l.53 2.348a7.747 7.747 0 0 1-3.476.806c-4.075 0-6.308-2.717-6.308-6.837-.002-4.161 2.185-7.039 6.421-7.039z" data-name="Path 1427"/></g></g><path fill="none" stroke="#ef3b24" d="M180.064.5H.5v61.6h136.913l12.125 14.471L161.663 62.1h18.4z" data-name="Path 1430"/></symbol><symbol viewBox="0 0 180.6 77.4" id="logo_p2p" xmlns="http://www.w3.org/2000/svg"><path fill="none" stroke="#ef3b24" d="M180.1.5H.5v61.6h136.9l12.1 14.5 12.1-14.5H180l.1-61.6z"/><path d="M90.026 36.567h-14.3c-1.3 0-1.1.2-1.1-1.1v-9.5c0-1.3 0-1.3 1.3-1.3h25.8c.9 0 .9 0 .9-.9v-5c0-.8 0-.8-.9-.8h-26.5c-.2 0-.4-.1-.4-.3v-.3c-.1-2-.1-2 1.9-2h28c.5 0 .6.1.6.6v10.4c0 1 0 1-1 1h-26c-.8 0-.8 0-.8.8v5.5c0 .5.1.7.6.6h26.7c.4 0 .6.1.6.6.1 2 .1 2-1.9 2l-13.5-.3zm21.9-9.4v8.7c0 .5-.1.7-.6.7-.7 0-1.6.2-2.1-.1-.5-.4-.2-1.3-.2-2v-18.8c0-.3.2-.4.5-.4h29.2c.7 0 .8 0 .8.8v10.3c0 .8 0 .8-.9.8h-26.7zm12.5-2.6h11.6c.8 0 .9 0 .9-.8v-5.2c0-.5-.1-.7-.7-.7h-23.5c-.8 0-.8 0-.8.8v5c0 .8-.2 1 1 1l11.5-.1zm-80.8 2.6c-.1.4-.2.8-.1 1.2v7.4c0 .7.1.8-.8.8-.6 0-1.5.3-1.9-.1-.5-.4-.2-1.3-.2-1.9v-18.5c-.1-.5.1-.7.6-.7h28.6c1.4 0 1.2-.2 1.2 1.2v9.4c0 1.4.2 1.3-1.2 1.3l-26.2-.1zm12.3-9.2h-11.7c-.8 0-.8 0-.8.8v5.1c0 .8 0 .8.8.8h23.4c.8 0 .8 0 .8-.8v-4.9c0-1 .1-1-1-1h-11.5zm69.1 25h1.8c.9.1 1.2.4 1.3 1.3v1.5c0 .8-.3 1.2-1.1 1.3-1.3.1-2.7.1-4 0-.7-.1-1-.5-1-1.2v-1.5c0-.8.3-1.2 1.1-1.3.5-.1 1.2-.1 1.9-.1zm-.1 3.5c2.5 0 2.2.2 2.2-2.2 0-.5-.3-.7-.7-.7h-1.6c-2.2 0-2-.4-2 2.2 0 .4.2.7.6.7h1.5zm13.1-1.1c.6.5 1.2 1 1.9 1.6-.6.2-1.3.1-1.8-.4-.4-.4-.8-.6-1.2-1-.3-.4-.9-.4-1.3-.2s-.3.6-.3 1v.5c-.1.2-.3.3-.5.3s-.4-.1-.4-.3c-.3-.8 0-1.7.8-2 .2-.1.5-.1.7-.1h2.2c.4 0 .9 0 .9-.5 0-.6-.4-.6-.8-.6h-2.7c-.4 0-1 .3-1-.4 0-.5.7-.2 1-.2h3.2c.5 0 1 .2 1.2.6.3.5.1 1.2-.5 1.5-.1 0-.2.1-.3.1-.3.1-.7.1-1.1.1zm-50.3-2.4h2.1c1 0 1.3.4 1.4 1.4v1.3c0 .9-.3 1.3-1.3 1.4-.6 0-1.3.1-1.9 0h-2.1c-.3 0-.8.2-.8-.4 0-.5.5-.3.8-.3h3.3c1.1 0 1.1 0 1.1-1.1 0-1.8.2-1.7-1.7-1.7h-3.1c-.2 0-.4-.1-.4-.3 0-.3.2-.3.4-.3h2.2zm16.1 4c-.3.2-.7.2-.8.1-.7-.8-1.6-.5-2.4-.5-.8 0-1.7-.2-2.3.6-.1.1-.2 0-.4-.1.9-1.2 1.7-2.4 2.6-3.7.2-.4.5-.3.7 0 .9 1.1 1.8 2.3 2.6 3.6zm-4.5-1.1h2.7l-1.4-1.8c-.4.5-.8 1.1-1.3 1.8zm-40.1 1.1c-.4.1-.7.2-.9 0-1.2-1-2.6-.3-3.9-.5-.4 0-.5.7-1 .5-.2-.2 0-.4.1-.5.7-1 1.4-2.1 2.2-3.1.5-.6.6-.6 1 0 .8 1.2 1.6 2.4 2.5 3.6zm-1.8-1.1l-1.5-1.8c-.4.6-.8 1.1-1.2 1.8h2.7zm-16.8-2.8c.5-.2 1.1-.1 1.3.4.6.9 1.2 1.7 1.9 2.4 1.1-.8 1.3-2.4 2.5-3 .1.1.2.1.2.2-.9 1.2-1.7 2.5-2.6 3.7-.2.3-.5.3-.7 0-.8-1.2-1.7-2.4-2.6-3.7zm72.3-.1h2.1c.2 0 .3.1.3.3v.1c0 .2-.2.2-.3.2h-.6c-1.1 0-1.1 0-1.1 1.2v1.5c0 .3.1.8-.4.8-.6 0-.5-.5-.5-.9v-1.9c0-.7 0-.7-.8-.8h-1c-.2 0-.3-.1-.3-.3 0-.2.1-.3.3-.3l2.3.1zm-44.1 4.1h-1.9c-.6.1-1.1-.4-1.2-1v-2.7c0-.3.2-.4.5-.4s.5.1.5.4v2.1c0 .8.1 1 1 1h3.3c.2 0 .4 0 .4.3 0 .2-.2.2-.3.2h-2.3zm10-2v1.5c0 .3-.1.5-.4.5-.3 0-.6-.1-.6-.5v-3.3c0-.3.2-.4.5-.4.4 0 .5.1.5.5-.1.6-.1 1.2 0 1.7zm-21.4.8h-2.7" fill="#fff"/></symbol><symbol viewBox="0 0 180.564 77.351" id="logo_visionary_life" xmlns="http://www.w3.org/2000/svg"><path fill="none" stroke="#ef3b24" d="M180.064.5H.5v61.6h136.913l12.125 14.471L161.663 62.1h18.4z" data-name="Path 1431"/><g data-name="Group 484"><g data-name="Group 483"><path fill="#fff" d="M69.021 27.697l-4.434 10.227h-2.33l-4.436-10.227h2.557l3.107 7.314 3.172-7.314z" data-name="Path 1478"/><path fill="#fff" d="M69.99 28.603a1.225 1.225 0 0 1-.388-.906 1.175 1.175 0 0 1 .388-.906 1.4 1.4 0 0 1 1.036-.356 1.544 1.544 0 0 1 1.036.356 1.108 1.108 0 0 1 .388.874 1.245 1.245 0 0 1-.388.939 1.417 1.417 0 0 1-1.036.388 1.563 1.563 0 0 1-1.036-.389zm-.129 1.456h2.3v7.865h-2.3z" data-name="Path 1479"/><path fill="#fff" d="M75.007 37.795a4.581 4.581 0 0 1-1.489-.615l.777-1.651a4.509 4.509 0 0 0 1.262.55 5.684 5.684 0 0 0 1.456.227c.971 0 1.456-.227 1.456-.712a.506.506 0 0 0-.388-.485 5.6 5.6 0 0 0-1.23-.259 11.241 11.241 0 0 1-1.586-.324 2.619 2.619 0 0 1-1.1-.68 1.966 1.966 0 0 1-.453-1.359 2.162 2.162 0 0 1 .421-1.327 2.894 2.894 0 0 1 1.262-.906 5.089 5.089 0 0 1 1.942-.324 7.185 7.185 0 0 1 1.651.194 4.417 4.417 0 0 1 1.359.518l-.777 1.618a4.543 4.543 0 0 0-2.266-.583 2.481 2.481 0 0 0-1.1.194.568.568 0 0 0-.356.518.516.516 0 0 0 .388.518 7.445 7.445 0 0 0 1.262.291 10.753 10.753 0 0 1 1.586.356 2.333 2.333 0 0 1 1.068.68 1.966 1.966 0 0 1 .453 1.359 2.1 2.1 0 0 1-.453 1.295 2.561 2.561 0 0 1-1.295.874 6.058 6.058 0 0 1-2.007.324 9.485 9.485 0 0 1-1.843-.291z" data-name="Path 1480"/><path fill="#fff" d="M82.159 28.603a1.225 1.225 0 0 1-.388-.906 1.175 1.175 0 0 1 .388-.906 1.4 1.4 0 0 1 1.036-.356 1.544 1.544 0 0 1 1.036.356 1.108 1.108 0 0 1 .388.874 1.245 1.245 0 0 1-.388.939 1.417 1.417 0 0 1-1.036.388 1.669 1.669 0 0 1-1.036-.389zm-.129 1.456h2.3v7.865h-2.3z" data-name="Path 1481"/><path fill="#fff" d="M87.949 37.536a4.2 4.2 0 0 1-1.553-1.456 3.859 3.859 0 0 1-.55-2.1 4.16 4.16 0 0 1 .55-2.1 3.76 3.76 0 0 1 1.553-1.456 5.074 5.074 0 0 1 4.466 0 3.878 3.878 0 0 1 1.521 1.456 4.3 4.3 0 0 1 0 4.207 3.878 3.878 0 0 1-1.521 1.456 4.552 4.552 0 0 1-2.233.518 4.938 4.938 0 0 1-2.233-.525zm3.657-1.942a2.158 2.158 0 0 0 .55-1.586 2.3 2.3 0 0 0-.55-1.586 1.926 1.926 0 0 0-1.456-.583 1.976 1.976 0 0 0-1.456.583 2.177 2.177 0 0 0-.583 1.586 2.126 2.126 0 0 0 .583 1.586 1.976 1.976 0 0 0 1.456.583 1.878 1.878 0 0 0 1.46-.579z" data-name="Path 1482"/><path fill="#fff" d="M103.164 30.804a3.411 3.411 0 0 1 .906 2.589v4.5h-2.3v-4.11a1.938 1.938 0 0 0-.421-1.392 1.61 1.61 0 0 0-1.2-.453 1.854 1.854 0 0 0-1.359.518 2.131 2.131 0 0 0-.518 1.586v3.884h-2.3v-7.867h2.168v.906a3.205 3.205 0 0 1 1.133-.777 3.7 3.7 0 0 1 1.489-.259 3.253 3.253 0 0 1 2.402.875z" data-name="Path 1483"/><path fill="#fff" d="M112.129 30.804a3.349 3.349 0 0 1 .971 2.622v4.5h-2.136v-.971a2.509 2.509 0 0 1-2.4 1.1 3.964 3.964 0 0 1-1.586-.291 2.168 2.168 0 0 1-1-.841 2.279 2.279 0 0 1-.356-1.23 2.03 2.03 0 0 1 .841-1.715 4.193 4.193 0 0 1 2.561-.612h1.812a1.461 1.461 0 0 0-.453-1.133 2.005 2.005 0 0 0-1.359-.388 3.913 3.913 0 0 0-1.23.194 3.151 3.151 0 0 0-1.036.55l-.809-1.586a4.925 4.925 0 0 1 1.553-.712 7.248 7.248 0 0 1 1.845-.259 3.675 3.675 0 0 1 2.782.772zm-1.974 5.437a1.616 1.616 0 0 0 .647-.809v-.809h-1.553c-.939 0-1.392.291-1.392.906a.8.8 0 0 0 .356.68 1.614 1.614 0 0 0 .939.259 1.769 1.769 0 0 0 1.003-.226z" data-name="Path 1484"/><path fill="#fff" d="M118.439 30.221a4.075 4.075 0 0 1 1.586-.291v2.1a3.819 3.819 0 0 0-.518-.032 2.082 2.082 0 0 0-1.521.55 2.253 2.253 0 0 0-.55 1.651v3.722h-2.3v-7.862h2.168v1.036a2.748 2.748 0 0 1 1.135-.874z" data-name="Path 1485"/><path fill="#fff" d="M129.511 30.06l-3.56 8.35a4.065 4.065 0 0 1-1.327 1.91 3.321 3.321 0 0 1-1.909.55 4.065 4.065 0 0 1-1.23-.194 2.775 2.775 0 0 1-.971-.518l.841-1.618a1.467 1.467 0 0 0 .615.356 1.69 1.69 0 0 0 .68.129 1.228 1.228 0 0 0 .777-.227 1.994 1.994 0 0 0 .518-.744l.032-.065-3.4-7.929h2.363l2.2 5.34 2.233-5.34h2.138z" data-name="Path 1486"/><path fill="#ffb700" d="M129.833 37.633a1.44 1.44 0 0 1-.421-1.036 1.253 1.253 0 0 1 .421-1 1.49 1.49 0 0 1 2.007 0 1.445 1.445 0 0 1 0 2.039 1.42 1.42 0 0 1-1 .421 1.364 1.364 0 0 1-1.007-.424z" data-name="Path 1487"/><path fill="#ffb700" d="M133.813 27.082h2.3v10.842h-2.3z" data-name="Path 1488"/><path fill="#ffb700" d="M138.312 28.603a1.225 1.225 0 0 1-.388-.906 1.175 1.175 0 0 1 .388-.906 1.4 1.4 0 0 1 1.036-.356 1.544 1.544 0 0 1 1.036.356 1.108 1.108 0 0 1 .388.874 1.245 1.245 0 0 1-.388.939 1.417 1.417 0 0 1-1.036.388 1.563 1.563 0 0 1-1.036-.389zm-.1 1.456h2.3v7.865h-2.3z" data-name="Path 1489"/><path fill="#ffb700" d="M145.113 30.222h2v1.748h-1.974v5.955h-2.3v-5.923h-1.226v-1.78h1.23v-.356a2.782 2.782 0 0 1 .809-2.136 3.127 3.127 0 0 1 2.233-.777 4.484 4.484 0 0 1 .971.1 2.8 2.8 0 0 1 .777.324l-.615 1.651a1.514 1.514 0 0 0-.906-.291c-.68 0-1.036.388-1.036 1.133v.356z" data-name="Path 1490"/><path fill="#ffb700" d="M155.822 34.623h-5.955a1.8 1.8 0 0 0 .777 1.165 2.451 2.451 0 0 0 1.489.421 2.9 2.9 0 0 0 1.1-.194 2.587 2.587 0 0 0 .874-.583l1.23 1.327a4.078 4.078 0 0 1-3.236 1.262 5.076 5.076 0 0 1-2.363-.518 4.058 4.058 0 0 1-1.586-1.456 3.859 3.859 0 0 1-.55-2.1 4.041 4.041 0 0 1 .55-2.071 3.878 3.878 0 0 1 1.521-1.456 4.347 4.347 0 0 1 2.135-.522 4.574 4.574 0 0 1 2.1.485 3.626 3.626 0 0 1 1.456 1.424 4.23 4.23 0 0 1 .55 2.168 2.952 2.952 0 0 0-.092.648zm-5.341-2.525a1.9 1.9 0 0 0-.647 1.2h3.884a1.837 1.837 0 0 0-.647-1.2 1.969 1.969 0 0 0-1.295-.453 2.237 2.237 0 0 0-1.295.453z" data-name="Path 1491"/></g><path fill="#ffb700" d="M38.111 18.247a14.111 14.111 0 1 0 14.111 14.111 14.1 14.1 0 0 0-14.111-14.111zm2.2 22.817h-4.336l-6.311-14.855h2.265l4.013 9.483 1.036-2.492-2.945-6.991H36.3l1.812 4.272 1.78-4.272h2.266l-5.34 12.784h4.337zm1.748-4.11h-2.3l4.534-10.745h2.266z" data-name="Path 1492"/></g></symbol></svg>