<?xml version="1.0" encoding="utf-8"?>
<!-- Generator: Adobe Illustrator 22.0.1, SVG Export Plug-In . SVG Version: 6.00 Build 0)  -->
<svg version="1.1" id="Group_1538" xmlns="http://www.w3.org/2000/svg" xmlns:xlink="http://www.w3.org/1999/xlink" x="0px" y="0px"
	 width="199.9px" height="229.3px" viewBox="0 0 199.9 229.3" style="enable-background:new 0 0 199.9 229.3;" xml:space="preserve"
	>
<style type="text/css">
	.st0{opacity:0.5;}
	.st1{fill:#EF3B24;}
	.st2{fill:#FBB818;}
</style>
<g>
	<g id="Group_1520" transform="translate(70.259 137.606)" class="st0">
		
			<rect id="Rectangle_442" x="61.6" y="-47" transform="matrix(0.259 -0.9659 0.9659 0.259 29.5078 72.5145)" class="st1" width="0.9" height="128.1"/>
	</g>
	<g id="Group_1521" transform="translate(4.803 137.498)" class="st0">
		<path id="Path_2455" class="st1" d="M170.2,85.3L65.6,1.1L0.5,52.7L0,52L65.6,0l0.3,0.2l104.9,84.4L170.2,85.3z"/>
	</g>
	<g id="Group_1522" transform="translate(4.632 7.377)" class="st0">
		<path id="Path_2456" class="st1" d="M0.9,182.6L0,182.4L32,47.9l0.3-0.1L181.6,0l0.3,0.8L32.7,48.5L0.9,182.6z"/>
	</g>
	<g id="Group_1532" transform="translate(178.499 0)">
		<circle id="Ellipse_679" class="st1" cx="7.8" cy="7.8" r="7.8"/>
	</g>
	<g id="Group_1533" transform="translate(188.278 165.461)">
		<circle id="Ellipse_680" class="st1" cx="5.8" cy="5.8" r="5.8"/>
	</g>
	<g id="Group_1534" transform="translate(168.378 215.554)">
		<circle id="Ellipse_681" class="st1" cx="6.9" cy="6.9" r="6.9"/>
	</g>
	<g id="Group_1535" transform="translate(0 184.761)">
		<circle id="Ellipse_682" class="st1" cx="5.1" cy="5.1" r="5.1"/>
	</g>
	<g>
		<path class="st2" d="M183.9,108.1c0-42.3-31.5-77.2-72.3-82.7c-0.3-0.1-0.6-0.2-1-0.2c0,0-0.1,0-0.1,0c-3.3-0.4-6.6-0.6-10-0.6
			c-23.7,0-45,9.9-60.2,25.7c-0.9-0.6-2-0.9-3.2-0.9c-3.4,0-6.2,2.8-6.2,6.2c0,1.6,0.6,3,1.6,4.1C26.1,68.6,21.5,78.6,19,89.6
			c-0.1,0.2-0.1,0.3-0.1,0.5c-1.3,5.8-2,11.8-2,18c0,43.5,33.3,79.1,75.8,83c0.3,0.2,0.6,0.4,0.9,0.4h0.2c0.3,0,0.6-0.1,0.9-0.3
			c1.9,0.1,3.8,0.2,5.7,0.2c20,0,38.3-7,52.7-18.8c0.3-0.1,0.5-0.3,0.6-0.5C172.1,156.9,183.8,133.9,183.9,108.1
			C183.9,108.1,183.9,108.1,183.9,108.1C183.9,108.1,183.9,108.1,183.9,108.1z M109,28.5c0.4,9.4-6.6,12.3-14.8,15.6
			c-2.8,1.1-5.5,2.3-8.1,3.8c-0.6,0.3-2.6,1.6-5.5,3.5C74.7,55.2,60.3,64.5,55,67.2c0.7-2.9,3.6-6.1,6.3-9.3
			c4.1-4.7,8.3-9.5,7.5-14.6c-0.4-2.5-2-4.7-4.6-6.6C75,31.2,87.3,28,100.4,28C103.3,28,106.2,28.2,109,28.5z M22,92.1
			c5.5,0.5,5.7,3.4,6.1,8.7c0.1,1.7,0.2,3.3,0.5,5c0.6,3.1,1.5,6.3,2.7,9.3c1,2.5,1.8,5,2.4,7.6c0.3,1.9,0.4,3.8,0.1,5.7
			c-0.3,2.4-0.2,4.9,0.3,7.3c0.5,1.6,1.2,3.1,2.2,4.5c0.7,1,1.4,2.2,1.8,3.4c1.5,5.3,1.6,10.9,1.3,16.1
			c-11.8-13.9-18.9-32-18.9-51.7C20.4,102.6,20.9,97.2,22,92.1z M42.6,163.3c0.5-6.3,0.8-13.6-1.3-20.6c-0.5-1.6-1.3-3-2.2-4.4
			c-0.8-1.1-1.4-2.3-1.8-3.5c-0.4-2-0.5-4.1-0.2-6.1c0.3-2.2,0.3-4.5-0.1-6.7c-0.7-2.8-1.6-5.5-2.6-8.1c-1.2-2.8-2-5.7-2.6-8.7
			c-0.2-1.5-0.3-3-0.4-4.6c-0.3-5.1-0.7-10.8-8.7-11.8c2.5-9.9,6.8-19.1,12.5-27.2c0.5,0.2,1.1,0.2,1.7,0.2c3.4,0,6.2-2.8,6.2-6.2
			c0-1-0.2-2-0.7-2.8c5.3-5.6,11.4-10.4,18.2-14.2c0.1,0.1,0.1,0.1,0.2,0.1c2.8,1.6,4.2,3.3,4.5,5.2c0.6,3.5-3.1,7.7-6.6,11.8
			c-3.9,4.7-8,9.4-7.1,14.2c0.1,0.6,0.5,1.1,1.1,1.4c0.3,0.1,0.5,0.2,0.8,0.2c1.7,0,6-2.2,29.1-17.2c2.6-1.7,4.7-3.1,5.3-3.4
			c2.5-1.3,5.1-2.5,7.7-3.5c8.2-3.3,17.3-7.1,17-18.4c1,0.2,2,0.3,3,0.5c-2.4,4.1-1.5,7.7-0.6,11.1c0.5,1.6,0.8,3.4,0.9,5.1
			c0.1,2.1-0.7,4.4-1.5,6.6c-0.3,1-0.6,1.8-0.9,2.7C111,54,107,54,101.4,55.5l-0.3,0.1c-0.4,0.1-0.9,0.4-1.1,0.8
			c-3.1,4.8-2.9,9.7-2.6,14.5c0.2,2.1,0.2,4.3,0.1,6.4c-0.6,7.4-2.8,10.1-8.6,15.6c-3.5,0.7-5.3,1.8-5.9,3.3c-0.7,1.7,0.3,3,1,3.9
			c0,0.2,0.2,0.3,0.3,0.5c-0.3,0.7-0.1,1.5,0.5,1.9l0.1,0.1c0.2,0.4,0.5,1.5,0.2,1.9c-0.3,0.5-0.9,0.4-2.9-0.3
			c-1.6-0.5-3.3-1.2-5.1-0.5c-0.8,0.4-1.3,1.1-1.4,2c-0.3,1.5-0.5,12.8,1.6,14.5c1.7,1.5,4.1,2,6.2,1.2c-0.1,0.1-0.1,0.1-0.2,0.1
			c-5,2.7-9.3,6.6-12.6,11.3c-0.1,0-0.2,0-0.3,0c-2.9,0-5.3,2.4-5.3,5.3c0,1.3,0.5,2.4,1.2,3.3c-1.9,5.7-1.8,11.2,0.4,16.1
			c3,6.8,8.6,10.1,13.6,13.1c6.6,3.8,12.2,7.2,11.9,17.1C72.8,185.6,55.4,176.7,42.6,163.3z M95.3,187.8
			c0.1-11.6-6.8-15.7-13.5-19.8c-4.8-2.9-9.7-5.9-12.3-11.6c-1.9-4.3-1.8-9-0.4-13.4c0.4,0.1,0.9,0.2,1.4,0.2c2.9,0,5.3-2.4,5.3-5.3
			c0-1.6-0.7-3-1.9-4c3-4,6.9-7.3,10.6-9.2c4.4-2.2,15-6.4,17.7-6c0.4,0.1,0.7,1.5,0.9,2.2c0.6,1.5,1,3.4,2.7,4
			c1.9,0.7,6.7,2.3,10.8,1.5c2-0.2,3.6-1.4,4.5-3.1c0.4-0.6,0.5-0.7,0.8-0.8c0.6-0.1,1.7-0.2,2.6-0.3c1.5,0,3-0.3,4.4-0.7
			c0.9-0.3,1.8-0.6,2.7-0.9c6-2.1,11.5-4,9.4-14.6c-0.1-0.5-0.5-0.9-0.9-1.2c-0.5-0.3-1-0.3-1.5-0.1l-0.1,0.1
			c-5.8,2.4-9.7,3.6-12.2-0.3c-0.2-0.3-0.5-0.6-0.8-0.7c-0.9-0.4-2,0.1-2.3,1c-0.4,0.8-0.8,1.5-1.4,2.2c-0.3,0.5-0.7,1-1,1.5
			c-2.8-2.2-5.2-2.3-6.7-1.9c-1.6,0.4-2.9,1.3-3.7,2.7c-0.6-0.9-1.3-1.8-2.1-2.5c-2.6-2.4-6.1-3.6-9.6-3.4c-5.2,0.5-7.3,3.7-9.1,6.5
			c-0.7,1.2-1.5,2.3-2.4,3.3c-0.3,0.3-0.6,0.7-0.9,1.1c-0.9,1.3-2,2.4-3.3,3.3c-1,0.7-2.3,0.7-3.3-0.1c-0.5-1.6-0.9-8.2-0.7-10.8
			c0.7,0.1,1.4,0.3,2.1,0.6c1.9,0.6,4.7,1.6,6.7-0.9c1.6-1.9,1-4.3,0.1-5.8c0-1-0.4-1.9-1.1-2.7c-0.2-0.2-0.4-0.5-0.5-0.7
			c1.2-0.7,2.5-1.1,3.8-1.3c0.3-0.1,0.6-0.2,0.8-0.4c6.3-6,9.2-9.6,9.9-18.2c0.2-2.3,0.2-4.6,0-6.9c-0.2-4.4-0.4-8.2,1.7-11.9
			c7.1-1.7,9.4-0.6,9.9-0.3c0.3,0.2,0.4,0.5,0.5,0.9c0.1,1,0.9,1.6,1.9,1.5c1-0.1,1.6-1,1.5-1.9c-0.2-1.3,0.5-3.2,1.3-5.3
			c1-2.5,1.6-5.2,1.7-7.9c-0.1-1.9-0.5-3.9-1-5.8c-0.9-3.6-1.6-6.1,0.9-9.5c33.7,8.2,59,37.6,61.1,73.3c-0.8-1-1.6-1.9-2.3-3
			c-2.1-2.7-3.7-5.1-6.7-5.4s-6.3,1.8-11.8,7.1c-0.5,0.5-0.6,1.1-0.5,1.6c0.2,0.6,0.6,1,1.2,1.2c1.1,0.4,2.2,0.8,3.2,1.3
			c1.3,0.7,2.6,1.2,3.9,1.5c-0.1,4.1-1.7,7.5-3.4,11.1c-1.9,3.9-3.8,8-3.6,13c0,0.7,0.4,1.3,1.1,1.5c0.7,0.3,1.4,0.1,1.9-0.4
			c0.4-0.4,0.8-0.8,1.3-1.1c-0.7,5.8-3.6,11.1-6.7,16.6c-3.8,6.6-7.6,13.5-7.3,21.8c-13.7,11-31.1,17.7-50.1,17.7
			C98.7,188,97,187.9,95.3,187.8z M85,120.4c1.6-1.1,3-2.4,4.1-4c0.2-0.3,0.5-0.6,0.7-0.9c1.1-1.2,2.1-2.5,2.9-3.9
			c1.6-2.6,3-4.7,6.5-5c2.6-0.1,5.1,0.8,7,2.6c1.5,1.3,2.4,3.1,2.5,5.1c0,0.9,0.6,1.6,1.5,1.7c0.9,0.1,1.7-0.5,1.9-1.4
			c0.6-2.8,1.7-4.6,3.1-4.9s3.2,0.6,5.1,2.7c0.4,0.5,1.1,0.7,1.7,0.5c0.6-0.1,1.1-0.6,1.2-1.2c0.3-1,0.8-1.9,1.5-2.7l0.5-0.8
			c3.7,3.4,8.7,2,12.8,0.3c0.6,5.9-2.2,6.8-7.5,8.6c-0.9,0.2-1.9,0.6-2.8,0.9c-1.1,0.3-2.2,0.5-3.4,0.5c-1.1,0-2.2,0.2-3.2,0.4
			c-1.2,0.4-2.2,1.2-2.8,2.4c-0.4,0.8-1.2,1.4-2.1,1.4c-2.2,0.4-5.5-0.1-8.8-1.3c-0.3-0.6-0.6-1.3-0.7-1.9c-0.5-1.9-1.2-4.4-3.7-4.7
			C99.2,114.3,89.2,118.5,85,120.4z M154.1,167.4c0.6-6,3.7-11.3,6.8-17c3.8-6.8,7.7-13.8,7.2-22c0-0.7-0.4-1.3-1.1-1.5
			c-0.6-0.3-1.4-0.1-1.8,0.4c-0.3,0.3-0.6,0.7-1,0.9c0.6-2.7,1.6-5.3,2.9-7.8c2-4.1,4-8.5,3.8-14c0-0.8-0.6-1.5-1.5-1.6
			c-1.6-0.3-3-0.8-4.4-1.5c-0.3-0.1-0.6-0.2-0.9-0.4c3.2-3,5.5-4.4,7-4.3c1.3,0.1,2.4,1.5,4.2,4c1.5,2.2,3.2,4.3,5.1,6.1
			C180.2,132,170.1,152.9,154.1,167.4z"/>
		<path class="st2" d="M79.3,91.7c1.1,0.2,2.1,0.3,3.2,0.3c1.9,0.2,3.7-0.6,5-2c2.6-3.4-0.4-9.7-2.7-14.2L84.5,75
			c-0.3-0.6-0.9-1-1.5-1c-0.6,0-1.2,0.3-1.6,0.8c-1.8,2.7-2.1,5.8-2.4,8.8c-0.1,1.9-0.4,3.9-1,5.8c-0.1,0.5,0,1,0.2,1.4
			C78.4,91.3,78.8,91.6,79.3,91.7z M82.5,84c0.1-1.4,0.3-2.7,0.5-4c1.3,3,2.6,6.7,1.6,8c-0.3,0.5-1.3,0.7-2.8,0.6
			C82.2,87,82.3,85.4,82.5,84z"/>
		<path class="st2" d="M141.9,92.3c-3.1-1.2-5.8-3.4-7.7-6.1c-0.3-0.4-0.7-0.6-1.1-0.7c-0.5-0.1-0.9,0-1.3,0.3l-0.9,0.6
			c-5.2,3.7-7.9,5.6-8.2,14.1c0,0.9,0.6,1.6,1.4,1.7c0.8,0.2,1.6,0.3,2.4,0.3c3.9,0,7-2,10-4.1c1.6-1.2,3.4-2.2,5.3-3
			c0.6-0.2,1.1-0.8,1.1-1.5C143,93.2,142.6,92.6,141.9,92.3z M134.8,95.6c-2.9,1.9-5.5,3.6-8.5,3.5c0.4-5.3,2-6.6,6.2-9.6
			c1.4,1.7,3.1,3.2,5,4.4C136.6,94.4,135.7,95,134.8,95.6z"/>
		<path class="st2" d="M152.3,96.1c0.3,0,0.6,0,0.8-0.1c1.9-1.2,3-2.7,3.1-4.3c0.3-2.9-2.4-5.3-5.2-7.8c-2.2-2-4.6-4.1-5-6
			c-0.1-0.6-0.5-1.1-1.1-1.3c-0.6-0.2-1.2-0.1-1.7,0.3c-2.5,2.4-3.3,5.6-2,9.3c1.7,4.9,6.8,9.6,10.9,9.9H152.3z M144.5,85
			c-0.4-1.1-0.5-2.2-0.3-3.4c1.3,1.7,2.9,3.3,4.6,4.5c1.9,1.7,4.2,3.8,4.1,5c-0.1,0.6-0.5,1.1-1,1.4C149.4,91.9,145.8,88.6,144.5,85
			z"/>
		<path class="st2" d="M114.6,69c-1.7,0.6-3.1,0.6-3.7,0.1c-0.6-0.6-1.1-2.3-0.3-5.4c0.1-0.6-0.1-1.2-0.5-1.6
			c-0.4-0.4-1-0.6-1.6-0.4c-6,1.6-5.4,11.4-4.9,18.5c0.1,1.8,0.2,3.4,0.2,4.5c0,0.6,0.3,1.1,0.7,1.4c0.3,0.2,0.6,0.3,1,0.3
			c0.1,0,0.3,0,0.5,0.1c5.6-1.5,7.7-7,9.6-11.9c0.4-1.2,0.9-2.4,1.3-3.3c0.2-0.4,0.2-0.9,0-1.3C116.5,69.1,115.5,68.7,114.6,69z
			 M112.2,73.4c-1.2,3.4-2.6,7-5.1,8.8c0-0.7,0-1.4-0.1-2.1c-0.2-3.3-0.5-7.8,0.1-11.1c0.3,1,0.8,1.9,1.4,2.9
			c1.1,0.9,2.4,1.3,3.8,1.2C112.3,73.2,112.2,73.3,112.2,73.4z"/>
	</g>
</g>
</svg>
