<?xml version="1.0" encoding="utf-8"?>
<!-- Generator: Adobe Illustrator 22.0.1, SVG Export Plug-In . SVG Version: 6.00 Build 0)  -->
<svg version="1.1" id="Layer_1" xmlns="http://www.w3.org/2000/svg" xmlns:xlink="http://www.w3.org/1999/xlink" x="0px" y="0px"
	 width="191.7px" height="226.1px" viewBox="0 0 191.7 226.1" style="enable-background:new 0 0 191.7 226.1;" xml:space="preserve"
	>
<style type="text/css">
	.st0{opacity:0.5;}
	.st1{fill:#EF3B24;}
	.st2{fill:#FBB818;}
	.st3{fill:#FCB918;}
</style>
<g>
	<g transform="translate(4.152 17.422)" class="st0">
		<path class="st1" d="M20.5,205l-0.8-0.3L63.9,90.8L0,0.5L0.7,0L65,90.6l-0.1,0.3L20.5,205z"/>
	</g>
	<g transform="translate(68.455 107.696)" class="st0">
		<rect x="59" y="-41.8" transform="matrix(0.3271 -0.945 0.945 0.3271 20.1971 70.2591)" class="st1" width="0.9" height="125.5"/>
	</g>
	<g transform="translate(10.471)">
		<path class="st2" d="M0,144.2V60.4L104.6,0v83.9l-53.1,30.6l-16.2,29.6l-15.1-11.6L0,144.2z M20.6,127.1l13.3,10.2l14.3-26.2
			l51.9-29.9V7.9L4.5,63v73.4L20.6,127.1z"/>
	</g>
	<g transform="translate(79.797 60.48)">
		<path class="st2" d="M0,122.6V51.2L88.7,0v71.4l-15.8,9.1l-12.8,24.6l-13.8-9.2L0,122.6z M4.5,53.9v60.9l42-24.3l11.9,7.9
			l11.1-21.3l14.7-8.5V7.9L4.5,53.9z"/>
	</g>
	<g transform="translate(35.656 51.055)">
		<g transform="translate(0 23.379)">
			<path class="st2" d="M4.8,16.3c-0.8,0-1.6-0.2-2.3-0.6c-1.6-1.1-2.6-2.9-2.4-4.9c0.2-4,2.3-7.7,5.7-9.8c1.6-1.1,3.7-1.2,5.5-0.4
				c1.6,1.1,2.6,2.9,2.4,4.9c-0.2,4-2.3,7.7-5.7,9.8C7,15.9,5.9,16.3,4.8,16.3z M8.9,4.6C8.6,4.7,8.3,4.8,8,5
				c-2,1.3-3.2,3.5-3.4,5.9c0,0.3,0.1,0.7,0.2,1c0.4,0,0.7-0.2,1-0.4C7.8,10.2,9,8,9.2,5.6C9.2,5.3,9.1,4.9,8.9,4.6L8.9,4.6z"/>
		</g>
		<g transform="translate(20.31 11.735)">
			<path class="st2" d="M4.8,16.3c-0.8,0-1.6-0.2-2.3-0.6c-1.6-1.1-2.6-2.9-2.4-4.9c0.2-4,2.3-7.7,5.7-9.8c1.6-1.1,3.7-1.2,5.5-0.4
				c1.6,1.1,2.6,2.9,2.4,4.9c-0.2,4-2.3,7.7-5.7,9.8C7,15.9,5.9,16.2,4.8,16.3z M8.8,4.5c-0.3,0-0.7,0.1-0.9,0.4
				c-2,1.3-3.2,3.5-3.4,5.9c0,0.3,0.1,0.7,0.2,1c0.4,0,0.7-0.2,1-0.4c2-1.3,3.2-3.5,3.4-5.9C9.1,4.8,8.9,4.5,8.8,4.5L8.8,4.5z"/>
		</g>
		<g transform="translate(40.53)">
			<path class="st2" d="M4.8,16.3c-0.8,0-1.6-0.2-2.3-0.6c-1.6-1.1-2.6-2.9-2.4-4.9c0.2-4,2.3-7.7,5.7-9.8c1.6-1.1,3.7-1.2,5.5-0.4
				c1.6,1.1,2.6,2.9,2.4,4.9c-0.2,4-2.3,7.7-5.7,9.8C7,15.9,5.9,16.3,4.8,16.3z M8.9,4.5C8.6,4.6,8.3,4.7,8,4.9
				c-2,1.3-3.2,3.5-3.4,5.9c0,0.3,0.1,0.7,0.2,1c0.4,0,0.7-0.2,1-0.4c2-1.3,3.2-3.5,3.4-5.9C9.2,5.2,9.1,4.8,8.9,4.5L8.9,4.5z"/>
		</g>
	</g>
	<g transform="translate(120.057 102.635)">
		<path class="st3" d="M0,35.7c0.1-3,1.6-5.7,4.1-7.3c2.3-1.4,4.1-0.3,4.1,2.5c-0.1,2.9-1.6,5.6-4.1,7.2C1.7,39.5,0,38.4,0,35.7z
			 M0.9,10.9L0.6,4l6.8-4L7.1,7.1L6.2,23.9l-4.4,2.6L0.9,10.9z"/>
	</g>
	<g transform="translate(0 13.179)">
		<circle class="st1" cx="4.5" cy="4.5" r="4.5"/>
	</g>
	<g transform="translate(62.736 102.274)">
		<circle class="st3" cx="5.9" cy="5.9" r="5.9"/>
	</g>
	<g transform="translate(182.703 144.7)">
		<circle class="st1" cx="4.5" cy="4.5" r="4.5"/>
	</g>
	<g transform="translate(20.491 218.539)">
		<circle class="st1" cx="3.8" cy="3.8" r="3.8"/>
	</g>
</g>
</svg>
