<?xml version="1.0" encoding="utf-8"?>
<!-- Generator: Adobe Illustrator 22.0.1, SVG Export Plug-In . SVG Version: 6.00 Build 0)  -->
<svg version="1.1" id="Layer_1" xmlns="http://www.w3.org/2000/svg" xmlns:xlink="http://www.w3.org/1999/xlink" x="0px" y="0px"
	 width="203.4px" height="210px" viewBox="0 0 203.4 210" style="enable-background:new 0 0 203.4 210;" xml:space="preserve">
<style type="text/css">
	.st0{opacity:0.5;}
	.st1{fill:#EF3B24;}
	.st2{fill:#FCB918;}
	.st3{fill:#FBB818;}
</style>
<g transform="translate(0 0.066)">
	<g transform="translate(3.676 24.283)" class="st0">
		<path class="st1" d="M94.9,98.1L0,0.6L0.6,0l94.5,97.1l100.5-44.6l0.3,0.8L94.9,98.1z"/>
	</g>
	<g transform="translate(98.299 121.701)" class="st0">
		<rect x="16.6" y="-3" transform="matrix(0.9298 -0.3679 0.3679 0.9298 -14.3266 9.2152)" class="st1" width="0.8" height="90.4"/>
	</g>
	<g transform="translate(0 20.527)">
		<circle class="st1" cx="4" cy="4" r="4"/>
	</g>
	<g transform="translate(127.956 201.951)">
		<circle class="st1" cx="4" cy="4" r="4"/>
	</g>
	<g transform="translate(195.411 73.196)">
		<circle class="st1" cx="4" cy="4" r="4"/>
	</g>
	<g transform="translate(92.311 115.875)">
		<circle class="st2" cx="6.4" cy="6.4" r="6.4"/>
	</g>
	<g transform="translate(9.769 -0.066)">
		<g transform="translate(15.407 16.756)">
			<path class="st3" d="M2.4,88.2l15,2.6c1.1,0.2,1.9,1,2.2,2.1c0.3,1.4,0.7,2.7,1.2,4l3.2-3.2c-0.2-0.6-0.3-1.2-0.5-1.8
				c-0.7-2.6-2.8-4.5-5.4-5L4,84.4V71.2l13.9-2.3c2.7-0.5,4.8-2.4,5.5-5c1.3-5,3.2-9.9,5.8-14.4c1.3-2.3,1.2-5.2-0.3-7.4l-8.4-11.7
				l9.4-9.4l11.5,8.2c2.2,1.5,5.1,1.7,7.4,0.3c4.5-2.7,9.3-4.7,14.4-6.1c2.6-0.7,4.5-2.8,5-5.4l2.4-14.1h13.2l2.3,13.9
				c0.5,2.7,2.4,4.8,5,5.5c0.8,0.2,1.7,0.5,2.5,0.7l3.2-3.2c-1.5-0.5-3.1-1-4.7-1.4c-1.1-0.3-1.9-1.1-2.1-2.2L87.5,2.5
				C87.3,1.1,86.1,0,84.6,0h-15c-1.4,0-2.7,1-2.9,2.5l-2.6,15c-0.2,1.1-1,1.9-2.1,2.2c-5.4,1.4-10.6,3.6-15.3,6.5
				c-1,0.5-2.2,0.5-3.1-0.1l-12.2-8.8c-0.5-0.4-1.1-0.6-1.8-0.6c-0.8,0-1.5,0.3-2.1,0.9L17.1,28.2c-1,1-1.1,2.6-0.3,3.8l8.9,12.5
				c0.6,0.9,0.7,2.1,0.2,3c-2.8,4.8-4.9,10-6.3,15.4c-0.3,1.1-1.1,1.9-2.2,2.1L2.5,67.5C1.1,67.7,0,68.9,0,70.3v14.9
				C0,86.7,1,87.9,2.4,88.2z"/>
			<g transform="translate(58.503 58.503)">
				<path class="st3" d="M94,8.6L79,6c-1.1-0.2-2-1-2.2-2.1c-0.3-1.3-0.7-2.6-1.1-3.9l-3.2,3.2L73,4.9c0.6,2.6,2.8,4.6,5.4,5
					l14.1,2.4v13.2l-14.1,2.3c-2.6,0.4-4.7,2.4-5.4,5c-1.3,5.1-3.3,9.9-6,14.4c-1.3,2.3-1.2,5.2,0.3,7.4l8.2,11.7l-9.4,9.4
					l-11.6-8.2c-2.2-1.6-5.1-1.7-7.4-0.3c-4.5,2.7-9.3,4.7-14.4,6c-2.6,0.6-4.6,2.8-5,5.4l-2.4,14.1H12.1L9.8,78.4
					c-0.4-2.6-2.4-4.7-5-5.4l-1.7-0.5L0,75.7c1.3,0.4,2.6,0.8,3.9,1.1C5,77.1,5.8,78,6,79l2.5,14.9c0.2,1.4,1.4,2.5,2.9,2.5h14.9
					c1.4,0,2.7-1,2.9-2.5L31.7,79c0.2-1.1,1-2,2.1-2.2c5.4-1.4,10.6-3.6,15.4-6.4c0.9-0.6,2.1-0.5,3,0.1l12.3,8.7
					c0.5,0.4,1.1,0.6,1.8,0.6c0.8,0,1.5-0.3,2.1-0.9L79,68.3c1-1,1.1-2.6,0.3-3.8l-8.8-12.4c-0.6-0.9-0.7-2.1-0.2-3
					c2.8-4.8,5-10,6.4-15.4c0.3-1.1,1.2-1.9,2.2-2.1l14.9-2.5c0.6-0.1,1.2-0.4,1.7-0.9h0.8V11.3C96.4,9.9,95.4,8.7,94,8.6z"/>
			</g>
		</g>
		<path class="st3" d="M35.6,185.8c-2.7,0-5.5-0.3-8.2-1L24,184l22.8-22.8L24.5,139L1.7,161.8l-0.8-3.5
			c-4.5-19.2,7.5-38.3,26.6-42.8c4.9-1.1,10-1.2,15-0.2l72.7-72.7c-3.8-19.3,8.7-38,28-41.9c5-1,10.1-0.9,15,0.2l3.5,0.8L139,24.5
			l22.2,22.2L184,24l0.8,3.5c4.5,19.1-7.3,38.2-26.3,42.7c-5,1.2-10.2,1.3-15.2,0.2l-72.7,72.7c3.8,19.3-8.7,38.1-28.1,41.9
			C40.2,185.6,37.9,185.8,35.6,185.8L35.6,185.8z M32.1,181.6c17.3,2,32.9-10.5,34.8-27.8c0.4-3.6,0.2-7.2-0.6-10.7l-0.2-1.1
			l75.8-75.8l1.1,0.2c16.9,4,33.9-6.5,37.9-23.5c0.8-3.5,1-7.2,0.6-10.7l-20.4,20.4l-27.9-28l20.4-20.4c-17.3-2-32.9,10.5-34.8,27.8
			c-0.4,3.6-0.2,7.2,0.6,10.7l0.2,1.1l-75.9,75.8l-1.1-0.2c-16.9-4-33.9,6.5-37.9,23.5c-0.8,3.5-1,7.2-0.6,10.7l20.4-20.4l27.9,27.9
			L32.1,181.6z"/>
	</g>
</g>
</svg>
