<?xml version="1.0" encoding="utf-8"?>
<!-- Generator: Adobe Illustrator 22.0.1, SVG Export Plug-In . SVG Version: 6.00 Build 0)  -->
<svg version="1.1" id="Layer_1" xmlns="http://www.w3.org/2000/svg" xmlns:xlink="http://www.w3.org/1999/xlink" x="0px" y="0px"
	 width="234.1px" height="198.1px" viewBox="0 0 234.1 198.1" style="enable-background:new 0 0 234.1 198.1;" xml:space="preserve"
	>
<style type="text/css">
	.st0{opacity:0.5;}
	.st1{fill:#EF3B24;}
	.st2{fill:#FCB918;}
	.st3{fill:#FBB818;}
</style>
<g transform="translate(0 -0.054)">
	<g transform="translate(3.686 18.602)" class="st0">
		<path class="st1" d="M168.6,104.8L35.4,78.5l-0.1-0.2L0,0.3L0.7,0L36,77.8L168.8,104L168.6,104.8z"/>
	</g>
	<g transform="translate(39.058 96.47)" class="st0">
		
			<rect x="66.4" y="-33.5" transform="matrix(0.59 -0.8074 0.8074 0.59 -12.1427 73.9774)" class="st1" width="0.8" height="164.8"/>
	</g>
	<g transform="translate(0 14.671)">
		<circle class="st1" cx="4.1" cy="4.1" r="4.1"/>
	</g>
	<g transform="translate(168.317 189.95)">
		<circle class="st1" cx="4.1" cy="4.1" r="4.1"/>
	</g>
	<g transform="translate(168.317 118.938)">
		<circle class="st1" cx="4.1" cy="4.1" r="4.1"/>
	</g>
	<g transform="translate(32.762 89.861)">
		<circle class="st2" cx="6.6" cy="6.6" r="6.6"/>
	</g>
	<g transform="translate(28.094 29.819)">
		<path class="st3" d="M33.3,150.2c-5.5,0.1-11-1.4-15.8-4.1C6.2,139.6,0,126.1,0,108C0,71.3,26,26.5,57.8,8.1
			c15.9-9.2,31-10.6,42.3-4c11.3,6.6,17.5,20.1,17.5,38.2c0,36.6-26,81.4-57.8,99.8C50.5,147.5,41.5,150.2,33.3,150.2z M84.4,4.1
			c-7.5,0-15.8,2.5-24.5,7.5C29.1,29.4,4.1,72.6,4.1,107.9c0,16.5,5.5,28.9,15.5,34.6c10.1,5.8,23.7,4.4,38.3-4
			c30.8-17.7,55.8-60.9,55.8-96.2c0-16.5-5.5-28.9-15.5-34.6C93.9,5.2,89.2,4,84.4,4.1z"/>
	</g>
	<g transform="translate(10.975 20.798)">
		<path class="st3" d="M31.8,153.3C20.8,146.1,0,125.1,0,97.6c0-36,19.3-69.2,51.8-88.8C64.5,1,79.8-1.8,94.4,1.2
			c13.4,2.7,24.9,9.9,31.7,19.8l-3.4,2.3c-12.2-18-42.8-26.7-68.9-11C22.8,31.1,4.2,62.9,4.2,97.6c0,25.8,19.6,45.5,30,52.4
			L31.8,153.3z"/>
	</g>
	<g transform="translate(45.048 42.847)">
		<path class="st3" d="M58.7,113.5L21.2,13.2L0,3.8L1.6,0l22.8,10.2l38.2,102L58.7,113.5z"/>
	</g>
	<g transform="translate(50.961 104.603)">
		<rect x="-20.6" y="34.5" transform="matrix(0.432 -0.9019 0.9019 0.432 -22.201 37.8152)" class="st3" width="79" height="4.1"/>
	</g>
	<g transform="translate(162.221 0.054)">
		<rect x="-4.4" y="19.9" transform="matrix(0.866 -0.5 0.5 0.866 -6.1485 20.8985)" class="st3" width="80.6" height="4.1"/>
	</g>
	<g transform="translate(162.201 17.996)">
		<rect x="-4.4" y="19.9" transform="matrix(0.866 -0.5 0.5 0.866 -6.1485 20.8985)" class="st3" width="80.6" height="4.1"/>
	</g>
	<g transform="translate(161.191 49.891)">
		<path class="st3" d="M0,60.4V26.9L46.7,0v33.4L0,60.4z M4.1,29.3v24l38.5-22.2v-24L4.1,29.3z"/>
	</g>
</g>
</svg>
