<?xml version="1.0" encoding="utf-8"?>
<!-- Generator: Adobe Illustrator 22.0.1, SVG Export Plug-In . SVG Version: 6.00 Build 0)  -->
<svg version="1.1" id="Layer_1" xmlns="http://www.w3.org/2000/svg" xmlns:xlink="http://www.w3.org/1999/xlink" x="0px" y="0px"
	 width="242.5px" height="166.7px" viewBox="0 0 242.5 166.7" style="enable-background:new 0 0 242.5 166.7;" xml:space="preserve"
	>
<style type="text/css">
	.st0{opacity:0.5;}
	.st1{fill:#EF3B24;}
	.st2{fill:#FBB818;}
	.st3{fill:#FCB918;}
</style>
<g>
	<g transform="translate(8.39 3.01)" class="st0">
		<path class="st1" d="M66.6,120.7l-0.9-0.2l14.6-75.1L0,0.7L0.5,0l80.8,44.9v0.4L66.6,120.7z"/>
	</g>
	<g transform="translate(88.191 37.757)" class="st0">
		<path class="st1" d="M118.8,125.9L0,10L96.3,0l0.1,0.9L2,10.8l117.5,114.5L118.8,125.9z"/>
	</g>
	<g transform="translate(5.198 0)">
		<circle class="st1" cx="3.4" cy="3.4" r="3.4"/>
	</g>
	<g transform="translate(203.924 159.965)">
		<circle class="st1" cx="3.4" cy="3.4" r="3.4"/>
	</g>
	<g transform="translate(181.124 34.838)">
		<circle class="st1" cx="3.4" cy="3.4" r="3.4"/>
	</g>
	<g transform="translate(55.632 37.039)">
		<path class="st2" d="M51.5,60.9c-12.9,0-26-2.8-35.9-8.6C5.6,46.5,0,38.7,0,30.3S5.5,14.1,15.3,8.5C34.9-2.8,67-2.8,86.7,8.6
			c10,5.8,15.6,13.6,15.6,22.1c0,8.4-5.5,16.1-15.3,21.8C77.2,58.1,64.4,60.9,51.5,60.9z M50.9,4.5c-12,0-24.1,2.6-33.3,7.9
			c-8.4,4.8-13,11.2-13,17.9c0,6.7,4.7,13.1,13.3,18.1c18.5,10.7,48.5,10.8,66.9,0.1c8.4-4.8,13-11.2,13-17.9
			c0-6.7-4.7-13.1-13.3-18.1C75.2,7.1,63,4.5,50.9,4.5z"/>
	</g>
	<g transform="translate(66.12 45.019)">
		<path class="st2" d="M41,45.3c-10.4,0-20.8-2.2-28.7-6.5C4.4,34.4,0,28.6,0,22.5S4.3,10.6,12,6.4c15.7-8.6,41.3-8.6,57.2,0.1
			c7.8,4.3,12.2,10.1,12.2,16.3c0,6.1-4.3,11.9-12,16.1C61.6,43.1,51.3,45.3,41,45.3z M40.5,1.8c-10,0-20,2.1-27.5,6.2
			C5.8,11.9,1.8,17,1.8,22.5s4,10.7,11.3,14.7c15.3,8.4,40.2,8.4,55.5,0.1c7.1-3.9,11.1-9,11.1-14.5s-4-10.7-11.3-14.7
			C60.6,3.9,50.5,1.8,40.5,1.8L40.5,1.8z"/>
	</g>
	<g transform="translate(55.632 67.306)">
		<path class="st2" d="M51.5,41.5c-12.9,0-26-2.8-35.9-8.6S0.1,19.4,0,11V0h4.6v10.9c0.1,6.7,4.8,13,13.3,18
			C36.4,39.6,66.4,39.7,84.7,29c7.5-4.3,12-9.8,12.9-15.7l0.2-13.2l4.6,0.1l-0.2,13.7c-1,7.3-6.5,14.1-15.1,19.2
			C77.2,38.7,64.4,41.5,51.5,41.5z"/>
	</g>
	<g transform="translate(0 6.612)">
		<g transform="translate(61.005 99.525)">
			
				<rect x="-2.7" y="11.8" transform="matrix(0.8661 -0.4999 0.4999 0.8661 -3.5275 12.2557)" class="st2" width="47.7" height="1.8"/>
		</g>
		<g transform="translate(19.608 9.895)">
			<path class="st2" d="M37.8,58.3L0,36.5L63.2,0l0.9,1.5L3.6,36.5l35.1,20.2L37.8,58.3z"/>
		</g>
		<g transform="translate(17.38 74.717)">
			
				<rect x="-2.7" y="11.6" transform="matrix(0.8661 -0.4999 0.4999 0.8661 -3.4728 12.0505)" class="st2" width="46.9" height="1.8"/>
		</g>
		<g transform="translate(150.207 69.175)">
			<path class="st2" d="M24.1,31.2L0,17.2l0.9-1.6L24.1,29L74.4,0l0.9,1.6L24.1,31.2z"/>
		</g>
		<g transform="translate(128.153 23.807)">
			<rect x="-0.9" y="5.1" transform="matrix(0.8661 -0.4999 0.4999 0.8661 -1.72 5.5081)" class="st2" width="20.7" height="1.8"/>
		</g>
		<g transform="translate(113.759 99.125)">
			<rect x="14.3" y="-7.7" transform="matrix(0.5 -0.866 0.866 0.5 -0.4567 17.7984)" class="st2" width="1.8" height="34"/>
		</g>
		<g transform="translate(79.435)">
			<path class="st2" d="M10.9,13.3c-2.6,0-5.2-0.6-7.5-1.8C1.2,10.2,0,8.4,0,6.6s1.2-3.6,3.4-4.8c4.7-2.4,10.3-2.4,15,0
				c2.2,1.3,3.4,3,3.4,4.8s-1.2,3.6-3.4,4.8C16,12.7,13.5,13.3,10.9,13.3z M10.7,1.8c-2.3,0-4.5,0.5-6.5,1.6c-1.6,0.9-2.5,2-2.5,3.2
				s0.9,2.4,2.5,3.3c4.1,2.1,9,2.1,13.1,0l0,0c1.6-0.9,2.5-2,2.5-3.2s-0.9-2.4-2.5-3.3C15.3,2.3,13,1.7,10.7,1.8z"/>
		</g>
		<g transform="translate(142.728 13.954)">
			<path class="st2" d="M10.9,13.3c-2.6,0-5.2-0.6-7.5-1.8C1.2,10.2,0,8.4,0,6.6s1.2-3.6,3.4-4.8c4.7-2.4,10.3-2.4,15,0
				c2.2,1.3,3.4,3,3.4,4.8s-1.2,3.6-3.4,4.8l0,0C16,12.7,13.5,13.3,10.9,13.3z M10.8,1.8c-2.3,0-4.5,0.5-6.5,1.5
				c-1.6,0.9-2.5,2-2.5,3.2s0.9,2.4,2.5,3.3c4.1,2.1,9,2.1,13.1,0l0,0c1.6-0.9,2.5-2,2.5-3.2S19,4.2,17.4,3.3
				C15.4,2.3,13.1,1.8,10.8,1.8L10.8,1.8z"/>
		</g>
		<g transform="translate(220.796 59.554)">
			<path class="st2" d="M10.9,13.3c-2.6,0-5.2-0.6-7.5-1.8C1.2,10.2,0,8.4,0,6.6s1.2-3.6,3.4-4.8c4.7-2.4,10.3-2.4,15,0
				c2.2,1.3,3.4,3,3.4,4.8s-1.2,3.6-3.4,4.8l0,0C16,12.7,13.5,13.3,10.9,13.3z M10.8,1.8c-2.3,0-4.5,0.5-6.5,1.6
				c-1.6,0.9-2.5,2-2.5,3.2s0.9,2.4,2.5,3.3c4.1,2.1,9,2.1,13.1,0c1.5-0.9,2.5-2,2.5-3.2S19,4.2,17.4,3.3
				C15.4,2.3,13.1,1.8,10.8,1.8L10.8,1.8z"/>
		</g>
		<g transform="translate(139.901 114.365)">
			<path class="st2" d="M10.9,13.3c-2.6,0-5.2-0.6-7.5-1.8C1.2,10.2,0,8.4,0,6.6s1.2-3.6,3.4-4.8c4.7-2.4,10.3-2.4,15,0
				c2.2,1.3,3.4,3,3.4,4.8s-1.2,3.6-3.4,4.8l0,0C16,12.7,13.5,13.3,10.9,13.3z M10.8,1.8c-2.3,0-4.5,0.5-6.5,1.6
				c-1.6,0.9-2.5,2-2.5,3.2s0.9,2.4,2.5,3.3c4.1,2.1,9,2.1,13.1,0c1.6-0.9,2.5-2,2.5-3.2S19,4.2,17.4,3.3
				C15.4,2.3,13.1,1.8,10.8,1.8L10.8,1.8z"/>
		</g>
		<g transform="translate(43.776 121.57)">
			<path class="st2" d="M10.9,13.3c-2.6,0-5.2-0.6-7.5-1.8C1.2,10.2,0,8.4,0,6.6s1.2-3.6,3.4-4.8c4.7-2.4,10.3-2.4,15,0
				c2.2,1.3,3.4,3,3.4,4.8s-1.2,3.6-3.4,4.8l0,0C16,12.7,13.5,13.3,10.9,13.3z M10.7,1.8c-2.3,0-4.5,0.5-6.5,1.6
				c-1.5,0.9-2.5,2-2.5,3.2s0.9,2.4,2.5,3.3c4.1,2.1,9,2.1,13.1,0l0,0c1.6-0.9,2.5-2,2.5-3.2s-0.9-2.4-2.5-3.3
				C15.3,2.3,13,1.8,10.7,1.8L10.7,1.8z"/>
		</g>
		<g transform="translate(0 96.307)">
			<path class="st2" d="M10.9,13.3c-2.6,0-5.2-0.6-7.5-1.8C1.2,10.2,0,8.5,0,6.6c0-1.8,1.2-3.6,3.4-4.8c4.7-2.4,10.3-2.4,15,0
				c2.2,1.3,3.4,3,3.4,4.8s-1.2,3.6-3.4,4.8C16,12.7,13.5,13.3,10.9,13.3z M10.8,1.9c-2.3,0-4.5,0.5-6.5,1.6c-1.5,0.9-2.5,2-2.5,3.2
				S2.7,9,4.3,9.9c4.1,2.1,9,2.1,13.1,0l0,0c1.5-0.9,2.5-2,2.5-3.2S19,4.3,17.4,3.4C15.4,2.3,13.1,1.8,10.8,1.9z"/>
		</g>
	</g>
	<g transform="translate(68.583 117.648)">
		<circle class="st3" cx="5.9" cy="5.9" r="5.9"/>
	</g>
	<g transform="translate(83.266 42.226)">
		<circle class="st3" cx="5.9" cy="5.9" r="5.9"/>
	</g>
</g>
</svg>
