<?xml version="1.0" encoding="utf-8"?>
<!-- Generator: Adobe Illustrator 22.0.1, SVG Export Plug-In . SVG Version: 6.00 Build 0)  -->
<svg version="1.1" id="Layer_1" xmlns="http://www.w3.org/2000/svg" xmlns:xlink="http://www.w3.org/1999/xlink" x="0px" y="0px"
	 width="191.4px" height="223.6px" viewBox="0 0 191.4 223.6" style="enable-background:new 0 0 191.4 223.6;" xml:space="preserve"
	>
<style type="text/css">
	.st0{opacity:0.5;}
	.st1{fill:#EF3B24;}
	.st2{fill:#FCB918;}
	.st3{fill:#FBB818;}
	.st4{fill:none;stroke:#FBB818;stroke-width:5;stroke-miterlimit:10;}
</style>
<g>
	<g transform="translate(3.976 79.032)" class="st0">
		<path class="st1" d="M106.4,140.6L57.1,49L0,0.7L0.6,0l57.2,48.5v0.1l49.4,91.6L106.4,140.6z"/>
	</g>
	<g transform="translate(61.304 4.225)" class="st0">
		<path class="st1" d="M0.2,123.9L0,123.2l106.9-32.7L115.5,0l0.8,0.1l-8.7,91l-0.2,0.1L0.2,123.9z"/>
	</g>
	<g transform="translate(161.047 87.482)">
		<circle class="st2" cx="7.5" cy="7.5" r="7.5"/>
	</g>
	<g transform="translate(53.931 120.288)">
		<circle class="st2" cx="7.5" cy="7.5" r="7.5"/>
	</g>
	<g transform="translate(172.977 0)">
		<circle class="st1" cx="4.2" cy="4.2" r="4.2"/>
	</g>
	<g transform="translate(0 75.139)">
		<circle class="st1" cx="4.2" cy="4.2" r="4.2"/>
	</g>
	<g transform="translate(106.454 215.144)">
		<circle class="st1" cx="4.2" cy="4.2" r="4.2"/>
	</g>
	<g transform="translate(39.93 84.169)">
		<path class="st3" d="M25.2,87.4L0,62.2l29.9-29.9L13.8,16.2L87.5,0L71.3,73.7L55,57.5L25.2,87.4z M5.8,62.2l19.4,19.3l29.9-29.9
			l13.8,13.8L82,5.4L22,18.6l13.8,13.8L5.8,62.2z"/>
	</g>
	<g transform="translate(36.948 104.382)">
		<path class="st3" d="M2.7,41.7L0,22.9L23.6,0l2.9,2.9L4.4,24.4l2.3,16.7L2.7,41.7z"/>
	</g>
	<g transform="translate(49.126 65.529)">
		<path class="st3" d="M3.7,34.2L0,15.1L74.4,0l4.1,17.8l-4.1,0.9L71.2,4.9L4.9,18.3l2.9,15.1L3.7,34.2z"/>
	</g>
	<g transform="translate(92.453 119.957)">
		<path class="st4" d="M0,0"/>
	</g>
	<g transform="translate(45.232 9.63)">
		<path class="st3" d="M121.1,146.2l-2.9-2.9c31.9-31.8,32-83.4,0.3-115.3S35.1-4.1,3.2,27.7C3.1,27.8,3,27.9,2.9,28L0,25.1
			c33.4-33.4,87.7-33.4,121.1,0S154.6,112.8,121.1,146.2z"/>
	</g>
	<g transform="translate(60.061 30.486)">
		<path class="st3" d="M91.5,110.6l-2.9-2.9c23.7-23.7,23.7-62.1,0-85.7S26.6-1.7,2.9,22L0,19.1C12.2,6.9,28.7,0,45.9,0l0,0
			c17.2-0.1,33.7,6.8,45.8,19C116.9,44.4,116.8,85.3,91.5,110.6z"/>
	</g>
</g>
</svg>
