<svg xmlns="http://www.w3.org/2000/svg" viewBox="0 0 204.434 226.122">
  <defs>
    <style>
      .cls-1 {
        opacity: 0.5;
      }

      .cls-2 {
        fill: #ef3b24;
      }

      .cls-3 {
        fill: #fbb818;
      }

      .cls-4 {
        fill: none;
        stroke: #fbb818;
        stroke-miterlimit: 10;
        stroke-width: 5px;
      }
    </style>
  </defs>
  <g id="Group_1407" data-name="Group 1407" transform="translate(0 -0.013)">
    <g id="Group_1379" data-name="Group 1379" class="cls-1" transform="translate(2.351 25.228)">
      <path id="Path_2354" data-name="Path 2354" class="cls-2" d="M2.6,227.994,38.224,43.542,78.1,95.623l75.679,8.138L199.71,27.9l.814.452-46.294,76.4L79,96.617l70.164,74.052-.633.633L78.008,96.8ZM38.767,45.622,4.5,222.84,77.375,96.075Z" transform="translate(-2.6 -27.9)"/>
    </g>
    <g id="Group_1387" data-name="Group 1387" transform="translate(45.48 11.936)">
      <g id="Group_1380" data-name="Group 1380" transform="translate(12.206 60.686)">
        <path id="Path_2355" data-name="Path 2355" class="cls-3" d="M68.863,165.656a4.38,4.38,0,0,1-2.351-.633c-1.718-.995-2.713-3.074-2.713-5.787V117.644c0-4.25,2.532-9.042,5.787-10.94l44.124-25.5a5.179,5.179,0,0,1,5.335-.271c1.718.995,2.713,3.074,2.713,5.787v41.592c0,4.25-2.532,9.042-5.787,10.94l-44.124,25.5A5.243,5.243,0,0,1,68.863,165.656Zm47.921-80.743a2.447,2.447,0,0,0-.723.271l-44.124,25.5c-1.9,1.085-3.526,4.34-3.526,7.053v41.592a2.825,2.825,0,0,0,.452,1.808,1.51,1.51,0,0,0,.814-.271l44.124-25.5c1.9-1.085,3.526-4.34,3.526-7.053V86.721c0-1.175-.271-1.718-.543-1.808Z" transform="translate(-63.8 -80.318)"/>
      </g>
      <g id="Group_1381" data-name="Group 1381" transform="translate(0 102.172)">
        <path id="Path_2356" data-name="Path 2356" class="cls-3" d="M55.183,166.978a4.381,4.381,0,0,1-2.351-.633,5.4,5.4,0,0,1-2.532-4.973v-20.8a12.714,12.714,0,0,1,5.787-10.036l7.5-4.34,2.26,3.888-7.5,4.34a8.067,8.067,0,0,0-3.526,6.148v20.8c0,.723.181.995.271,1.085a2.154,2.154,0,0,0,1.085-.362l7.5-4.34,2.26,3.888-7.5,4.34A5.7,5.7,0,0,1,55.183,166.978Z" transform="translate(-50.3 -126.2)"/>
      </g>
      <g id="Group_1382" data-name="Group 1382" transform="translate(66.457)">
        <path id="Path_2357" data-name="Path 2357" class="cls-3" d="M126.965,81.013,123.8,77.848,187.635,13.2V66.456h-4.521V24.231Z" transform="translate(-123.8 -13.2)"/>
      </g>
      <g id="Group_1383" data-name="Group 1383" transform="translate(67.723 53.256)">
        <path id="Path_2358" data-name="Path 2358" class="cls-3" d="M125.833,130.69l-.633-4.43,58.048-8.318V72.1h4.521v49.73Z" transform="translate(-125.2 -72.1)"/>
      </g>
      <g id="Group_1384" data-name="Group 1384" transform="translate(106.06 25.498)">
        <rect id="Rectangle_418" data-name="Rectangle 418" class="cls-3" width="4.521" height="78.392"/>
      </g>
      <g id="Group_1385" data-name="Group 1385" transform="translate(21.971 125.59)">
        <path id="Path_2359" data-name="Path 2359" class="cls-3" d="M96.119,210.962,74.6,167.923l4.069-1.989,19.349,38.7,11.845-6.781L99.284,153.095l4.34-.995,11.393,48.012Z" transform="translate(-74.6 -152.1)"/>
      </g>
      <g id="Group_1386" data-name="Group 1386" transform="translate(126.946 33.315)">
        <path id="Path_2360" data-name="Path 2360" class="cls-3" d="M192.96,88.793l-2.26-3.888c4.7-2.713,8.59-12.116,8.59-20.525,0-5.7-1.718-8.68-3.165-9.494-.362-.181-1.356-.723-3.165.271L190.7,51.27A7.373,7.373,0,0,1,198.385,51c3.436,1.989,5.425,6.872,5.425,13.472C203.811,74.507,199.018,85.267,192.96,88.793Z" transform="translate(-190.7 -50.045)"/>
      </g>
    </g>
    <g id="Group_1398" data-name="Group 1398" transform="translate(33.274 1.65)">
      <g id="Group_1388" data-name="Group 1388" transform="translate(12.206 59.065)">
        <path id="Path_2361" data-name="Path 2361" class="cls-3" d="M54.821,110.5H50.3v-6.058c0-4.25,2.532-9.042,5.787-10.94l44.124-25.5a5.083,5.083,0,0,1,5.515-.09l.181.09,12.839,12.478-3.165,3.255L103.194,71.716a1.806,1.806,0,0,0-.723.271l-44.124,25.5c-1.9,1.085-3.526,4.34-3.526,7.053Z" transform="translate(-50.3 -67.148)"/>
      </g>
      <g id="Group_1389" data-name="Group 1389" transform="translate(0 99.618)">
        <path id="Path_2362" data-name="Path 2362" class="cls-3" d="M38.789,152.688a7.487,7.487,0,0,1-1.989-4.611v-20.8a12.714,12.714,0,0,1,5.787-10.036L51.628,112,65.1,126.376l-3.345,3.074L50.724,117.7l-5.968,3.436a8.067,8.067,0,0,0-3.526,6.148v20.8a2.756,2.756,0,0,0,.723,1.447Z" transform="translate(-36.8 -112)"/>
      </g>
      <g id="Group_1390" data-name="Group 1390" transform="translate(66.367)">
        <rect id="Rectangle_419" data-name="Rectangle 419" class="cls-3" width="88.609" height="4.521" transform="translate(0 63.019) rotate(-45.332)"/>
      </g>
      <g id="Group_1391" data-name="Group 1391" transform="translate(108.32 102.15)">
        <path id="Path_2363" data-name="Path 2363" class="cls-4" d="M156.6,114.8" transform="translate(-156.6 -114.8)"/>
      </g>
      <g id="Group_1392" data-name="Group 1392" transform="translate(108.32 23.758)">
        <path id="Path_2364" data-name="Path 2364" class="cls-4" d="M156.6,28.1" transform="translate(-156.6 -28.1)"/>
      </g>
      <g id="Group_1393" data-name="Group 1393" transform="translate(29.386 152.513)">
        <path id="Path_2365" data-name="Path 2365" class="cls-3" d="M95.7,212.725,82.5,198.981,69.3,172.489l4.069-1.989,12.839,25.769L98.957,209.56Z" transform="translate(-69.3 -170.5)"/>
      </g>
      <g id="Group_1394" data-name="Group 1394" transform="translate(41.863 143.109)">
        <path id="Path_2366" data-name="Path 2366" class="cls-4" d="M83.1,160.1" transform="translate(-83.1 -160.1)"/>
      </g>
      <g id="Group_1395" data-name="Group 1395" transform="translate(29.657 150.162)">
        <path id="Path_2367" data-name="Path 2367" class="cls-4" d="M69.6,167.9" transform="translate(-69.6 -167.9)"/>
      </g>
      <g id="Group_1396" data-name="Group 1396" transform="translate(41.863 151.97)">
        <path id="Path_2368" data-name="Path 2368" class="cls-4" d="M83.1,169.9" transform="translate(-83.1 -169.9)"/>
      </g>
      <g id="Group_1397" data-name="Group 1397" transform="translate(32.55 157.395)">
        <path id="Path_2369" data-name="Path 2369" class="cls-4" d="M72.8,175.9" transform="translate(-72.8 -175.9)"/>
      </g>
    </g>
    <g id="Group_1399" data-name="Group 1399" transform="translate(160.386 0.013)">
      <rect id="Rectangle_420" data-name="Rectangle 420" class="cls-3" width="4.521" height="17.36" transform="translate(0 3.232) rotate(-45.644)"/>
    </g>
    <g id="Group_1400" data-name="Group 1400" transform="translate(34.828 138.354)">
      <rect id="Rectangle_421" data-name="Rectangle 421" class="cls-3" width="4.521" height="17.722" transform="translate(0 3.245) rotate(-45.863)"/>
    </g>
    <g id="Group_1401" data-name="Group 1401" transform="translate(71.52 87.254)">
      <circle id="Ellipse_673" data-name="Ellipse 673" class="cls-3" cx="6.148" cy="6.148" r="6.148"/>
    </g>
    <g id="Group_1402" data-name="Group 1402" transform="translate(148.737 96.567)">
      <circle id="Ellipse_674" data-name="Ellipse 674" class="cls-3" cx="5.063" cy="5.063" r="5.063"/>
    </g>
    <g id="Group_1403" data-name="Group 1403" transform="translate(33.816 37.434)">
      <circle id="Ellipse_675" data-name="Ellipse 675" class="cls-2" cx="4.521" cy="4.521" r="4.521"/>
    </g>
    <g id="Group_1404" data-name="Group 1404" transform="translate(195.392 20.888)">
      <circle id="Ellipse_676" data-name="Ellipse 676" class="cls-2" cx="4.521" cy="4.521" r="4.521"/>
    </g>
    <g id="Group_1405" data-name="Group 1405" transform="translate(0 219.444)">
      <circle id="Ellipse_677" data-name="Ellipse 677" class="cls-2" cx="3.345" cy="3.345" r="3.345"/>
    </g>
    <g id="Group_1406" data-name="Group 1406" transform="translate(145.391 165.013)">
      <circle id="Ellipse_678" data-name="Ellipse 678" class="cls-2" cx="3.345" cy="3.345" r="3.345"/>
    </g>
  </g>
</svg>
