<?xml version="1.0" encoding="utf-8"?>
<!-- Generator: Adobe Illustrator 22.0.1, SVG Export Plug-In . SVG Version: 6.00 Build 0)  -->
<svg version="1.1" id="Layer_1" xmlns="http://www.w3.org/2000/svg" xmlns:xlink="http://www.w3.org/1999/xlink" x="0px" y="0px"
	 width="188.1px" height="210.1px" viewBox="0 0 188.1 210.1" style="enable-background:new 0 0 188.1 210.1;" xml:space="preserve"
	>
<style type="text/css">
	.st0{opacity:0.5;}
	.st1{fill:#EF3B24;}
	.st2{fill:#FBB818;}
	.st3{fill:#FCB918;}
</style>
<g transform="translate(-0.01)">
	<g transform="translate(45.726 15.672)" class="st0">
		<path class="st1" d="M75,77.2l-0.2-0.2L0,0.5L0.6,0l74.6,76.3l62.9-16.9l0.2,0.8L75,77.2z"/>
	</g>
	<g transform="translate(109.109 92.358)" class="st0">
		
			<rect x="-51" y="56.4" transform="matrix(9.970182e-02 -0.995 0.995 9.970182e-02 -51.061 57.2252)" class="st1" width="114.1" height="0.8"/>
	</g>
	<g transform="translate(41.929 11.795)">
		<circle class="st1" cx="4.1" cy="4.1" r="4.1"/>
	</g>
	<g transform="translate(105.427 201.882)">
		<circle class="st1" cx="4.1" cy="4.1" r="4.1"/>
	</g>
	<g transform="translate(179.91 71.414)">
		<circle class="st1" cx="4.1" cy="4.1" r="4.1"/>
	</g>
	<g transform="translate(0.011)">
		<g transform="translate(25.6)">
			<g transform="translate(17.45)">
				<path class="st2" d="M30.5,131.9L0,101.5l13.3-11.2c1.3-3.5,8.8-22.1,30.9-44.1C90.4-0.1,128.4,0,130,0h1.9v1.9
					c0,1.6,0.1,39.6-46.1,85.8c-22.1,22.1-40.6,29.6-44.1,30.9L30.5,131.9z M6,101.7l24.2,24.2l9.1-10.8l0.6-0.2
					c0.2-0.1,20-6.9,43.1-30.1c23.5-23.5,34.4-44.8,39.5-58.5c2.7-7.2,4.5-14.7,5.3-22.3c-3.6,0.2-11.5,1.4-22.3,5.3
					c-13.7,5.1-35,16-58.5,39.5C23.8,72.1,17,91.8,17,92.1l-0.2,0.6L6,101.7z"/>
			</g>
			<g transform="translate(60.346 75.453)">
				<path class="st2" d="M0,73.8l2.9-4.4c0.2-0.2,13.7-20.8,11.5-37.6l-0.2-1.3l1.1-0.7c9-5.9,17.3-12.8,24.9-20.4
					c2.2-2.2,4.3-4.4,6.3-6.5L49,0l0.9,3.7c1.5,6.9,2.6,21-8.4,38.4l0,0C25.8,67.1,5.9,72.3,5.1,72.5L0,73.8z M18.4,32.6
					c0.6,7.5-1.1,16.2-5.3,26c-1.4,3.2-2.7,5.9-4,8.1c2.1-1,4.2-2.1,6.2-3.4C21.4,59.5,30.2,52.3,38,40l0,0
					c8.4-13.2,9.3-24.4,8.5-31.4c-1.2,1.2-2.4,2.5-3.6,3.7C35.4,19.9,27.2,26.7,18.4,32.6L18.4,32.6z"/>
			</g>
			<g transform="translate(0 38.073)">
				<path class="st2" d="M0,50.9l1.3-5.1C1.5,45,6.7,25.1,31.7,9.3l1,1.7l-1-1.7C49-1.6,63.2-0.6,70,0.9l3.7,0.9l-2.8,2.6
					c-2.2,2-4.4,4.2-6.5,6.3c-7.7,7.6-14.5,15.9-20.4,24.9l-0.7,1.1l-1.3-0.2C25,34.3,4.4,47.8,4.3,48L0,50.9z M61.2,4
					c-6.9,0-16.4,1.8-27.4,8.7l0,0C17.7,22.9,10.3,34.9,7.1,41.6c2.2-1.2,4.9-2.6,8.1-4c9.8-4.2,18.5-6,26-5.3
					c6-8.8,12.7-17,20.3-24.5c1.2-1.2,2.4-2.4,3.7-3.6C64,4.1,62.6,4,61.2,4z"/>
			</g>
		</g>
		<g transform="translate(109.193 36.353)">
			<path class="st2" d="M14.6,29.3C6.5,29.4-0.2,22.9-0.2,14.7C-0.3,6.6,6.2-0.1,14.4-0.2c8.1-0.1,14.8,6.5,14.9,14.6
				c0,3.9-1.5,7.7-4.3,10.5C22.3,27.8,18.5,29.3,14.6,29.3z M14.6,4C8.7,3.9,3.8,8.7,3.8,14.6s4.7,10.8,10.7,10.9
				c5.9,0.1,10.8-4.7,10.9-10.7c0-2.9-1.1-5.7-3.2-7.7C20.2,5.1,17.5,3.9,14.6,4L14.6,4z"/>
		</g>
		<g transform="translate(0 99.855)">
			<rect x="-2.6" y="13" transform="matrix(0.8613 -0.5082 0.5082 0.8613 -4.3713 14.0401)" class="st2" width="52.3" height="4"/>
		</g>
		<g transform="translate(44.916 127.788)">
			
				<rect x="-11.1" y="21.5" transform="matrix(0.5082 -0.8613 0.8613 0.5082 -12.8914 24.511)" class="st2" width="52.3" height="4"/>
		</g>
		<g transform="translate(12.916 126.387)">
			
				<rect x="-5.4" y="15.9" transform="matrix(0.7071 -0.7071 0.7071 0.7071 -7.4059 17.8795)" class="st2" width="46.5" height="4"/>
		</g>
	</g>
	<g transform="translate(113.586 85.147)">
		<circle class="st3" cx="7.3" cy="7.3" r="7.3"/>
	</g>
</g>
</svg>
