<?xml version="1.0" encoding="utf-8"?>
<!-- Generator: Adobe Illustrator 22.0.1, SVG Export Plug-In . SVG Version: 6.00 Build 0)  -->
<svg version="1.1" id="Layer_1" xmlns="http://www.w3.org/2000/svg" xmlns:xlink="http://www.w3.org/1999/xlink" x="0px" y="0px"
	 width="177.5px" height="172.5px" viewBox="0 0 177.5 172.5" style="enable-background:new 0 0 177.5 172.5;" xml:space="preserve"
	>
<style type="text/css">
	.st0{opacity:0.5;}
	.st1{fill:#EF3B24;}
	.st2{fill:#FCB918;}
	.st3{fill:#FBB818;}
</style>
<g>
	<g transform="translate(2.754 58.157)" class="st0">
		<path class="st1" d="M86,111.4l-0.7-0.1l6.8-70L0,0.7L0.3,0L93,40.9l-0.1,0.2L86,111.4z"/>
	</g>
	<g transform="translate(95.067 2.833)" class="st0">
		<path class="st1" d="M80,159.2l-0.7-0.6L0,96.8l0.6-0.6l78.4,61.2L64.8,45.8v-0.1L77,0l0.8,0.2L65.6,45.9L80,159.2z"/>
	</g>
	<g transform="translate(0 55.639)">
		<circle class="st1" cx="2.9" cy="2.9" r="2.9"/>
	</g>
	<g transform="translate(90.109 93.729)">
		<circle class="st2" cx="5.1" cy="5.1" r="5.1"/>
	</g>
	<g transform="translate(155.113 43.598)">
		<circle class="st2" cx="5.1" cy="5.1" r="5.1"/>
	</g>
	<g transform="translate(22.271 10.856)">
		<g transform="translate(62.249)">
			<path class="st3" d="M43.9,88C19.6,88,0,68.3,0,44c0-11.5,4.5-22.5,12.5-30.7c17-17.4,44.8-17.7,62.2-0.7s17.7,44.8,0.7,62.2
				C67.1,83.2,55.8,88,43.9,88z M44,3.9h-0.5C20.9,4.1,2.7,22.5,2.9,45.1S21.4,85.8,44,85.7c22.6-0.1,40.8-18.5,40.6-41.1
				C84.5,22.2,66.4,4.1,44,3.9z"/>
		</g>
		<g transform="translate(71.563 9.285)">
			<path class="st3" d="M34.7,69.3C15.5,69.3,0,53.8,0.1,34.6C0.1,15.7,15.3,0.3,34.2,0c9.2-0.2,18.1,3.4,24.6,9.8
				c13.7,13.4,14,35.3,0.6,49C53,65.6,44,69.3,34.7,69.3L34.7,69.3z M34.7,3.9h-0.4C17.3,4.2,3.7,18.1,3.9,35.1
				c0.2,17,14.2,30.6,31.2,30.4c17-0.2,30.6-14.2,30.4-31.2c-0.1-8.2-3.4-15.9-9.3-21.6l0,0C50.4,7.1,42.7,4,34.7,3.9L34.7,3.9z"/>
		</g>
		<g transform="translate(0 66.267)">
			<path class="st3" d="M14.8,86.2L0,71.7L71.7,0l13.1,12.7L14.8,86.2z M5.6,71.7l9.1,8.9l64.5-67.7l-7.5-7.3L5.6,71.7z"/>
		</g>
		<g transform="translate(18.982 118.977)">
			<rect x="5.2" y="-1" transform="matrix(0.6985 -0.7156 0.7156 0.6985 -2.8849 7.2376)" class="st3" width="3.9" height="16.1"/>
		</g>
	</g>
	<g transform="translate(105.612 25.97)">
		<path class="st3" d="M3.6,54.6L0,53.1L11.4,25l13.1,10.6L37.5,0l3.7,1.3L26.4,42.1L13.1,31.4L3.6,54.6z"/>
	</g>
	<g transform="translate(85.465 166.681)">
		<circle class="st1" cx="2.9" cy="2.9" r="2.9"/>
	</g>
	<g transform="translate(171.639 158.182)">
		<circle class="st1" cx="2.9" cy="2.9" r="2.9"/>
	</g>
	<g transform="translate(169.514 0)">
		<circle class="st1" cx="2.9" cy="2.9" r="2.9"/>
	</g>
</g>
</svg>
